<svg xmlns="http://www.w3.org/2000/svg" width="394" height="482" viewBox="0 0 394 482">
  <g fill="none" fill-rule="evenodd">
    <path fill="#514495" d="M157.8396 476.8233l-149.875-86.658c-12.257-7.087-10.037-19.832 4.958-28.467l167.382-96.392c14.994-8.635 37.086-9.89 49.342-2.804l149.876 86.658c12.256 7.087 10.036 19.832-4.959 28.467l-167.381 96.392c-14.995 8.635-37.087 9.891-49.343 2.804"/>
    <path fill="#5F48A4" d="M157.8396 471.1062l-149.875-86.658c-12.257-7.087-10.037-19.832 4.958-28.467l167.382-96.392c14.994-8.635 37.086-9.89 49.342-2.804l149.876 86.658c12.256 7.087 10.036 19.832-4.959 28.467l-167.381 96.392c-14.995 8.635-37.087 9.891-49.343 2.804"/>
    <path stroke="#8C6CEA" stroke-width=".75" d="M158.1468 470.588L9.5538 384.671c-14.938-8.828-10.359-20.05 4.507-28.612l166.851-95.458c14.867-8.561 36.77-9.806 48.921-2.78l148.593 85.917c12.152 7.026 12.495 18.437-4.916 28.223l-166.442 95.847c-14.867 8.561-36.769 9.806-48.921 2.78z"/>
    <path fill="#3E3878" d="M96.6832 351.1568v-1.659l13.072-5.89 117.652 66.445v1.503l-12.691 7.328c-.236.137-.527.137-.764 0l-117.269-67.727zm44.3228-25.7193l13.072-7.549 117.652 66.445v1.503l-12.691 7.328c-.236.137-.527.137-.764 0l-117.269-67.727z"/>
    <path fill="#E1E1E1" d="M258.6572 391.7142l-117.651-67.948v-222.612l117.651 67.948"/>
    <path stroke="#BCBCBC" d="M166.5185 115.9925v222.871m33.0867-203.8648v222.871m33.0866-203.8648v222.871"/>
    <path stroke="#FDFDFC" d="M165.8268 115.3007v222.871m33.0866-203.8648v222.871m33.0867-203.8647v222.871"/>
    <path fill="#D9D9D9" d="M234.9369 192.2038l-65.229-37.634v-5.584l65.229 37.634m0 17.4337l-65.229-37.634v-5.584l65.229 37.634m-27.6842 1.4085l-37.545-21.609v-5.584l37.545 21.609m51.4045 197.4479l13.072-7.549v-222.612l-13.072 7.549"/>
    <path fill="#EEE" d="M141.006 101.1819l13.072-7.549 117.652 67.948-13.073 7.549"/>
    <path stroke="#FFF" stroke-width=".75" d="M258.6572 169.1297l-117.651-67.948m117.651 139.1992l-117.651-67.948"/>
    <path stroke="#BCBCBC" d="M258.6572 239.6891l-117.651-67.948"/>
    <path stroke="#FFF" stroke-width=".75" d="M258.6572 288.6861l-117.651-67.948"/>
    <path stroke="#BCBCBC" d="M258.6572 287.9944l-117.651-67.948"/>
    <path stroke="#FFF" stroke-width=".75" d="M258.6572 340.4502l-117.651-67.948"/>
    <path stroke="#BCBCBC" d="M258.6572 339.7584l-117.651-67.948"/>
    <path stroke="#FFF" stroke-width=".75" d="M258.6572 240.3809l-117.651-67.948"/>
    <path stroke="#BCBCBC" d="M258.6572 239.6891l-117.651-67.948"/>
    <path stroke="#FFF" stroke-width=".75" d="M258.6572 288.6861l-117.651-67.948"/>
    <path stroke="#BCBCBC" d="M258.6572 287.9944l-117.651-67.948"/>
    <path stroke="#FFF" stroke-width=".75" d="M258.6572 340.4502l-117.651-67.948"/>
    <path stroke="#BCBCBC" d="M258.6572 339.7584l-117.651-67.948"/>
    <path stroke="#FFF" stroke-width=".75" d="M258.6572 169.1297l13.072-7.549"/>
    <path stroke="#EEE" stroke-width=".75" d="M258.6572 169.1297v222.558"/>
    <path fill="#D9D9D9" d="M151.2091 145.5298c-.114 4.018 2.482 8.155 5.798 9.238 3.315 1.084 6.096-1.295 6.21-5.313.113-4.018-2.482-8.155-5.798-9.238-3.316-1.084-6.096 1.295-6.21 5.313"/>
    <path fill="#A1A1A1" d="M248.7789 200.6467l-79.071-45.971v-5.584l79.071 45.971m0 17.1696l-79.071-45.707v-5.584l79.071 45.707m-27.6841 1.4085l-51.387-29.682v-5.583l51.387 29.681m-69.8857-56.943c-.114 4.018 2.482 8.155 5.798 9.238 3.315 1.084 6.096-1.295 6.21-5.313.113-4.018-2.482-8.155-5.798-9.238-3.316-1.084-6.096 1.295-6.21 5.313m97.5698 104.5209l-79.071-45.707v-5.584l79.071 45.707m0 17.3278l-79.071-45.707v-5.584l79.071 45.707m-27.6841 1.3023l-51.387-29.576v-5.583l51.387 29.682m-69.8857-56.8379c-.114 4.018 2.482 8.155 5.798 9.238 3.315 1.084 6.096-1.295 6.21-5.313.113-4.018-2.482-8.155-5.798-9.239-3.316-1.083-6.096 1.296-6.21 5.314m97.5698 104.4151l-79.071-45.707v-5.584l79.071 45.707"/>
    <path stroke="#FFF" stroke-width=".75" d="M258.2922 240.3175l13.437-7.76"/>
    <path stroke="#BCBCBC" d="M258.2922 239.6257l13.437-7.76"/>
    <path stroke="#FFF" stroke-width=".75" d="M258.2922 288.5866l13.437-7.76"/>
    <path stroke="#BCBCBC" d="M258.2922 287.8949l13.437-7.76"/>
    <path fill="#008EDC" d="M150.1469 192.2038l7.007 14.158s2.357-1.407 3.375-1.938c1.589-.829 2.664-2.693 2.734-5.175.115-4.072-2.515-8.263-5.874-9.361-1.405-.459-2.715-.305-3.772.328-1.471.88-3.47 1.988-3.47 1.988"/>
    <path fill="#0070CA" d="M147.5828 197.2853c-.115 4.071 2.515 8.262 5.874 9.36 3.36 1.099 6.177-1.312 6.292-5.383.115-4.072-2.514-8.262-5.874-9.361-3.36-1.098-6.177 1.313-6.292 5.384"/>
    <path fill="#4EB8F7" d="M154.9931 206.9566c-.534 0-1.087-.09-1.642-.271 0 0 2.171.145 3.216-.47 1.863-1.097 2.499-3.118 2.554-5.049.106-3.74-2.303-7.598-5.37-8.601-.784-.256-1.557-.301-2.265-.138-2.561.457-3.76 3.234-3.479 2.49.394-1.046.956-1.948 1.781-2.528 1.186-.837 2.675-1.024 4.193-.528 3.357 1.098 5.995 5.281 5.88 9.327-.061 2.165-.906 3.977-2.317 4.97-.753.529-1.626.798-2.551.798"/>
    <path stroke="#FFF" stroke-width=".75" d="M258.2922 340.2565l13.437-7.76"/>
    <path stroke="#BCBCBC" d="M258.2922 339.5647l13.437-7.76"/>
    <path fill="#A1A1A1" d="M248.7789 311.4627l-79.071-45.707v-5.584l79.071 45.707m-27.6841 1.4085l-51.387-29.682v-5.583l51.387 29.681m-69.8857-56.8372c-.114 4.018 2.482 8.155 5.798 9.238 3.315 1.084 6.096-1.295 6.21-5.313.113-4.018-2.482-8.155-5.798-9.239-3.316-1.083-6.096 1.296-6.21 5.314"/>
    <path fill="#00D06B" d="M201.7234 340.4054l-33.475-21.78c-5.081-2.754-9.16-9.708-9.109-15.533l-3.299-2.499s4.162-2.358 5.795-3.329c1.778-1.057 4.119-1.183 6.795.266l32.969 17.866c5.081 2.753 9.159 9.707 9.109 15.532-.026 2.98-1.127 5.087-2.876 6.066-1.671.935-5.909 3.411-5.909 3.411"/>
    <path fill="#00A551" d="M195.162 339.9873l-32.97-17.866c-5.081-2.753-9.159-9.707-9.108-15.532.05-5.825 4.209-8.315 9.29-5.562l32.97 17.866c5.081 2.753 9.159 9.707 9.109 15.532-.05 5.825-4.21 8.315-9.291 5.562"/>
    <path fill="#00F081" d="M199.9004 341.1089s2.28-.773 3.284-3.406c.351-.921.575-2.003.585-3.236.049-5.664-3.929-12.448-8.868-15.124l-32.753-17.749c-2.316-1.255-4.49-1.417-6.122-.454-.918.541-1.724 1.148-2.162 2.271-.349.896-.781 3.524-.781 3.524.025-2.94.723-5.289 2.592-6.391 1.849-1.09 4.265-.933 6.803.443l32.753 17.748c5.14 2.785 9.281 9.845 9.23 15.738-.033 3.767-1.73 6.094-4.561 6.636"/>
    <path stroke="#D3D3D3" d="M179.8922 108.7518l-13.374 8.057m46.4606 10.9492l-13.374 8.057m46.4607 10.9493l-13.374 8.057"/>
    <path stroke="#FDFDFC" d="M179.2004 108.06l-13.374 8.057m46.4606 10.9493l-13.374 8.057m46.4607 10.9492l-13.374 8.057"/>
    <path stroke="#7B7B7B" d="M199.6052 166.2186v5.822"/>
    <path stroke="#DCDCDC" d="M198.9134 165.8062v5.822"/>
    <path stroke="#7B7B7B" d="M199.6052 178.0283v5.822"/>
    <path stroke="#DCDCDC" d="M198.9134 177.6159v5.822"/>
    <path stroke="#7B7B7B" d="M199.6052 189.9009v5.822"/>
    <path stroke="#DCDCDC" d="M198.9134 189.4886v5.822"/>
    <path stroke="#7B7B7B" d="M199.6052 215.896v5.822"/>
    <path stroke="#DCDCDC" d="M198.9134 215.4836v5.822"/>
    <path stroke="#7B7B7B" d="M199.6052 227.7848v5.822"/>
    <path stroke="#DCDCDC" d="M198.9134 227.3725v5.822"/>
    <path stroke="#7B7B7B" d="M199.6052 239.5803v5.822"/>
    <path stroke="#DCDCDC" d="M198.9134 239.168v5.822"/>
    <path stroke="#7B7B7B" d="M199.6052 265.5197v5.822"/>
    <path stroke="#DCDCDC" d="M198.9134 265.1073v5.822"/>
    <path stroke="#7B7B7B" d="M199.6052 277.4296v5.822"/>
    <path stroke="#DCDCDC" d="M198.9134 277.0173v5.822"/>
    <path stroke="#7B7B7B" d="M199.6052 289.3041v5.822"/>
    <path stroke="#DCDCDC" d="M198.9134 288.8917v5.822"/>
    <path fill="#3E3878" d="M119.266 338.0983l13.072-7.549 117.652 66.445v1.503l-12.691 7.328c-.236.137-.527.137-.764 0l-117.269-67.727z"/>
    <path fill="#E1E1E1" d="M236.9172 404.3977l-117.651-67.948v-222.612l117.651 67.948"/>
    <path stroke="#BCBCBC" d="M144.7785 128.676v222.871m33.0867-203.8648v222.871m33.0866-203.8648v222.871"/>
    <path stroke="#FDFDFC" d="M144.0867 127.9842v222.871m33.0867-203.8648v222.871m33.0867-203.8647v222.871"/>
    <path fill="#D9D9D9" d="M185.5127 212.5615l-37.545-21.609v-5.583l37.545 21.608m51.4045 197.4479l13.072-7.549v-222.612l-13.072 7.549"/>
    <path fill="#EEE" d="M119.266 113.8655l13.072-7.549 117.652 67.948-13.073 7.549"/>
    <path stroke="#FFF" stroke-width=".75" d="M236.9172 181.8132l-117.651-67.948m117.651 139.1992l-117.651-67.948"/>
    <path stroke="#BCBCBC" d="M236.9172 252.3726l-117.651-67.948"/>
    <path stroke="#FFF" stroke-width=".75" d="M236.9172 301.3697l-117.651-67.948"/>
    <path stroke="#BCBCBC" d="M236.9172 300.6779l-117.651-67.948"/>
    <path stroke="#FFF" stroke-width=".75" d="M236.9172 353.1337l-117.651-67.948"/>
    <path stroke="#BCBCBC" d="M236.9172 352.442l-117.651-67.948"/>
    <path stroke="#FFF" stroke-width=".75" d="M236.9172 253.0644l-117.651-67.948"/>
    <path stroke="#BCBCBC" d="M236.9172 252.3726l-117.651-67.948"/>
    <path stroke="#FFF" stroke-width=".75" d="M236.9172 301.3697l-117.651-67.948"/>
    <path stroke="#BCBCBC" d="M236.9172 300.6779l-117.651-67.948"/>
    <path stroke="#FFF" stroke-width=".75" d="M236.9172 353.1337l-117.651-67.948"/>
    <path stroke="#BCBCBC" d="M236.9172 352.442l-117.651-67.948"/>
    <path stroke="#FFF" stroke-width=".75" d="M236.9172 181.8132l13.072-7.549"/>
    <path stroke="#EEE" stroke-width=".75" d="M236.9172 181.8132v222.558"/>
    <path fill="#D9D9D9" d="M129.4691 158.2133c-.114 4.018 2.482 8.155 5.798 9.238 3.315 1.084 6.096-1.295 6.21-5.313.113-4.018-2.482-8.155-5.798-9.239-3.316-1.083-6.096 1.296-6.21 5.314"/>
    <path fill="#A1A1A1" d="M227.0389 213.3302l-79.071-45.971v-5.584l79.071 45.971m0 17.1696l-79.071-45.707v-5.584l79.071 45.707m-27.6841 1.4085l-51.387-29.682v-5.583l51.387 29.681m-69.8857-56.943c-.114 4.018 2.482 8.155 5.798 9.238 3.315 1.084 6.096-1.295 6.21-5.313.113-4.018-2.482-8.155-5.798-9.239-3.316-1.083-6.096 1.296-6.21 5.314m97.5698 104.5209l-79.071-45.707v-3.508l79.071 45.707m0 15.2518l-79.071-45.707v-5.584l79.071 45.707m-27.6841 1.3024l-51.387-29.576v-5.583l51.387 29.682m-69.8857-56.838c-.114 4.018 2.482 8.155 5.798 9.238 3.315 1.084 6.096-1.295 6.21-5.313.113-4.018-2.482-8.155-5.798-9.239-3.316-1.083-6.096 1.296-6.21 5.314m97.5698 104.4151l-79.071-45.707v-5.584l79.071 45.707"/>
    <path stroke="#FFF" stroke-width=".75" d="M236.5522 253.001l13.437-7.76"/>
    <path stroke="#BCBCBC" d="M236.5522 252.3093l13.437-7.76"/>
    <path stroke="#FFF" stroke-width=".75" d="M236.5522 301.2702l13.437-7.76"/>
    <path stroke="#BCBCBC" d="M236.5522 300.5784l13.437-7.76"/>
    <path fill="#008EDC" d="M128.4069 204.8873l7.007 14.158s2.357-1.407 3.375-1.938c1.589-.829 2.664-2.693 2.734-5.176.115-4.071-2.515-8.262-5.874-9.36-1.405-.459-2.715-.305-3.772.328-1.471.88-3.47 1.988-3.47 1.988"/>
    <path fill="#0070CA" d="M125.8428 209.9688c-.115 4.071 2.515 8.262 5.874 9.36 3.36 1.099 6.177-1.312 6.292-5.383.115-4.072-2.514-8.262-5.874-9.361-3.36-1.098-6.177 1.313-6.292 5.384"/>
    <path fill="#4EB8F7" d="M133.2531 219.6401c-.534 0-1.087-.09-1.642-.271 0 0 2.171.145 3.216-.47 1.863-1.097 2.499-3.118 2.554-5.049.106-3.74-2.303-7.598-5.37-8.601-.784-.256-1.557-.3-2.265-.138-2.561.457-3.76 3.234-3.479 2.49.394-1.046.956-1.948 1.781-2.528 1.186-.837 2.675-1.024 4.193-.528 3.357 1.098 5.995 5.281 5.88 9.327-.061 2.165-.906 3.977-2.317 4.97-.753.529-1.626.798-2.551.798"/>
    <path stroke="#FFF" stroke-width=".75" d="M236.5522 352.94l13.437-7.76"/>
    <path stroke="#BCBCBC" d="M236.5522 352.2482l13.437-7.76"/>
    <path fill="#A1A1A1" d="M227.0389 324.1462l-79.071-45.707v-5.584l79.071 45.707m-27.6841 1.4085l-51.387-29.682v-5.583l51.387 29.681m-69.8857-56.8371c-.114 4.018 2.482 8.155 5.798 9.238 3.315 1.084 6.096-1.295 6.21-5.313.113-4.018-2.482-8.155-5.798-9.239-3.316-1.083-6.096 1.296-6.21 5.314"/>
    <path fill="#00D06B" d="M179.9834 353.0889l-33.475-21.78c-5.081-2.754-9.16-9.708-9.109-15.533l-3.299-2.499s4.162-2.358 5.795-3.329c1.778-1.057 4.119-1.183 6.795.266l32.969 17.866c5.081 2.753 9.159 9.707 9.109 15.532-.026 2.98-1.127 5.087-2.876 6.066-1.671.935-5.909 3.411-5.909 3.411"/>
    <path fill="#00A551" d="M173.422 352.6708l-32.97-17.866c-5.081-2.753-9.159-9.707-9.108-15.532.05-5.825 4.209-8.315 9.29-5.562l32.97 17.866c5.081 2.753 9.159 9.707 9.109 15.532-.05 5.825-4.21 8.315-9.291 5.562"/>
    <path fill="#00F081" d="M178.1604 353.7924s2.28-.773 3.284-3.406c.351-.921.575-2.003.585-3.236.049-5.664-3.929-12.448-8.868-15.124l-32.753-17.749c-2.316-1.255-4.49-1.417-6.122-.454-.918.541-1.724 1.148-2.162 2.271-.349.896-.781 3.524-.781 3.524.025-2.94.723-5.289 2.592-6.391 1.849-1.09 4.265-.933 6.803.443l32.753 17.748c5.14 2.785 9.281 9.845 9.23 15.738-.033 3.767-1.73 6.094-4.561 6.636"/>
    <path stroke="#D3D3D3" d="M158.1521 121.4353l-13.374 8.057m46.4607 10.9493l-13.374 8.057m46.4607 10.9492l-13.374 8.057"/>
    <path stroke="#FDFDFC" d="M157.4604 120.7436l-13.374 8.057m46.4606 10.9492l-13.374 8.057m46.4607 10.9492l-13.374 8.057"/>
    <path stroke="#7B7B7B" d="M177.8652 178.9021v5.822"/>
    <path stroke="#DCDCDC" d="M177.1734 178.4897v5.822"/>
    <path stroke="#7B7B7B" d="M177.8652 190.7118v5.822"/>
    <path stroke="#DCDCDC" d="M177.1734 190.2994v5.822"/>
    <path stroke="#7B7B7B" d="M177.8652 202.5844v5.822"/>
    <path stroke="#DCDCDC" d="M177.1734 202.1721v5.822"/>
    <path stroke="#7B7B7B" d="M177.8652 228.5795v5.822"/>
    <path stroke="#DCDCDC" d="M177.1734 228.1671v5.822"/>
    <path stroke="#7B7B7B" d="M177.8652 240.4683v5.822"/>
    <path stroke="#DCDCDC" d="M177.1734 240.056v5.822"/>
    <path stroke="#7B7B7B" d="M177.8652 252.2638v5.822"/>
    <path stroke="#DCDCDC" d="M177.1734 251.8515v5.822"/>
    <path stroke="#7B7B7B" d="M177.8652 278.2032v5.822"/>
    <path stroke="#DCDCDC" d="M177.1734 277.7908v5.822"/>
    <path stroke="#7B7B7B" d="M177.8652 290.1132v5.822"/>
    <path stroke="#DCDCDC" d="M177.1734 289.7008v5.822"/>
    <path stroke="#7B7B7B" d="M177.8652 301.9876v5.822"/>
    <path stroke="#DCDCDC" d="M177.1734 301.5752v5.822"/>
    <path stroke="#7B7B7B" d="M210.9518 198.1849v5.822m0 6.0669v5.822"/>
    <path stroke="#DCDCDC" d="M210.2601 209.6614v5.822"/>
    <path fill="#AFAFAF" d="M183.5327 232.689l43.798 25.295-13.072 7.549-42.839-24.741"/>
    <path fill="#858585" d="M188.0237 250.2247l13.072-7.549v-70.442l-13.072 7.549"/>
    <path fill="#E1E1E1" d="M214.3344 417.4457l-117.651-67.948v-222.612l92.127 53.235-.787 70.375 26.311 15.073"/>
    <path stroke="#BCBCBC" d="M122.1958 141.724v222.871m33.0866-203.8647v222.871m33.0867-203.8648v222.871"/>
    <path stroke="#FDFDFC" d="M121.504 141.0323v222.871m33.0867-203.8648v222.871m33.0866-203.8648v222.871"/>
    <path fill="#D9D9D9" d="M162.93 225.6096l-37.545-21.609v-5.583l37.545 21.608m51.4044 197.4479l13.072-7.549v-151.904l-13.072 7.549"/>
    <path fill="#EEE" d="M96.6832 126.9135l13.072-7.549 91.484 52.835-12.929 7.632"/>
    <path stroke="#FFF" stroke-width=".75" d="M188.8108 180.1204l-92.128-53.207m117.6516 139.199l-117.651-67.948"/>
    <path stroke="#BCBCBC" d="M214.3344 265.4207l-117.651-67.948"/>
    <path stroke="#FFF" stroke-width=".75" d="M214.3344 314.4177l-117.651-67.948"/>
    <path stroke="#BCBCBC" d="M214.3344 313.7259l-117.651-67.948"/>
    <path stroke="#FFF" stroke-width=".75" d="M214.3344 366.1818l-117.651-67.948"/>
    <path stroke="#BCBCBC" d="M214.3344 365.49l-117.651-67.948"/>
    <path stroke="#FFF" stroke-width=".75" d="M214.3344 266.1124l-117.651-67.948"/>
    <path stroke="#BCBCBC" d="M214.3344 265.4207l-117.651-67.948"/>
    <path stroke="#FFF" stroke-width=".75" d="M214.3344 314.4177l-117.651-67.948"/>
    <path stroke="#BCBCBC" d="M214.3344 313.7259l-117.651-67.948"/>
    <path stroke="#FFF" stroke-width=".75" d="M214.3344 366.1818l-117.651-67.948"/>
    <path stroke="#BCBCBC" d="M214.3344 365.49l-117.651-67.948"/>
    <path stroke="#EEE" stroke-width=".75" d="M214.3344 265.4207v151.998"/>
    <path fill="#D9D9D9" d="M106.8863 171.2614c-.114 4.018 2.482 8.155 5.798 9.238 3.315 1.084 6.096-1.295 6.21-5.313.113-4.018-2.482-8.155-5.798-9.239-3.316-1.083-6.096 1.296-6.21 5.314"/>
    <path fill="#A1A1A1" d="M188.0109 216.8172l-62.626-36.41v-5.584l62.639 36.418m-.0008 17.2236l-62.638-36.208v-5.584l62.638 36.208m-11.2511 10.9076l-51.387-29.682v-5.583l51.387 29.681m-69.8857-56.943c-.114 4.018 2.482 8.155 5.798 9.238 3.315 1.084 6.096-1.295 6.21-5.313.113-4.018-2.482-8.155-5.798-9.239-3.316-1.083-6.096 1.296-6.21 5.314m97.5698 104.5209l-79.071-45.707v-5.584l79.071 45.707m0 17.3278l-79.071-45.707v-5.584l79.071 45.707m-27.6841 1.3023l-51.387-29.576v-5.583l51.387 29.682m-69.8857-56.8379c-.114 4.018 2.482 8.155 5.798 9.238 3.315 1.084 6.096-1.295 6.21-5.313.113-4.018-2.482-8.155-5.798-9.238-3.316-1.084-6.096 1.295-6.21 5.313m97.5698 104.415l-79.071-45.707v-5.584l79.071 45.707"/>
    <path stroke="#FFF" stroke-width=".75" d="M213.9694 266.0491l13.437-7.76"/>
    <path stroke="#8F8F8F" d="M213.9694 265.3573l13.002-7.509"/>
    <path stroke="#FFF" stroke-width=".75" d="M213.9694 314.3182l13.437-7.76"/>
    <path stroke="#BCBCBC" d="M213.9694 313.6265l13.437-7.76"/>
    <path fill="#008EDC" d="M105.8241 217.9354l7.007 14.158s2.357-1.407 3.375-1.938c1.589-.829 2.664-2.693 2.734-5.176.115-4.071-2.515-8.262-5.874-9.36-1.405-.459-2.715-.305-3.772.328-1.471.88-3.47 1.988-3.47 1.988"/>
    <path fill="#0070CA" d="M103.26 223.0169c-.115 4.071 2.515 8.262 5.874 9.36 3.36 1.099 6.177-1.312 6.292-5.383.115-4.072-2.514-8.262-5.874-9.361-3.36-1.098-6.177 1.313-6.292 5.384"/>
    <path fill="#4EB8F7" d="M110.6703 232.6882c-.534 0-1.087-.09-1.642-.271 0 0 2.171.145 3.216-.47 1.863-1.097 2.499-3.118 2.554-5.049.106-3.74-2.303-7.598-5.37-8.601-.784-.256-1.557-.301-2.265-.138-2.561.457-3.76 3.234-3.479 2.49.394-1.046.956-1.948 1.781-2.528 1.186-.837 2.675-1.024 4.193-.528 3.357 1.098 5.995 5.281 5.88 9.327-.061 2.165-.906 3.977-2.317 4.97-.753.529-1.626.798-2.551.798"/>
    <path stroke="#FFF" stroke-width=".75" d="M213.9694 365.988l13.437-7.76"/>
    <path stroke="#BCBCBC" d="M213.9694 365.2963l13.437-7.76"/>
    <path fill="#A1A1A1" d="M204.4561 337.1942l-79.071-45.707v-5.584l79.071 45.707m-27.6841 1.4086l-51.387-29.682v-5.583l51.387 29.681m-69.8857-56.8372c-.114 4.018 2.482 8.155 5.798 9.238 3.315 1.084 6.096-1.295 6.21-5.313.113-4.018-2.482-8.155-5.798-9.239-3.316-1.083-6.096 1.296-6.21 5.314"/>
    <path fill="#00D06B" d="M157.4006 366.137l-33.475-21.78c-5.081-2.754-9.16-9.708-9.109-15.533l-3.299-2.499s4.162-2.358 5.795-3.329c1.778-1.057 4.119-1.183 6.795.266l32.969 17.866c5.081 2.753 9.159 9.707 9.109 15.532-.026 2.98-1.127 5.087-2.876 6.066-1.671.935-5.909 3.411-5.909 3.411"/>
    <path fill="#00BE54" d="M150.8435 365.7189l-32.97-17.866c-5.081-2.753-9.159-9.707-9.108-15.532.05-5.825 4.209-8.315 9.29-5.562l32.97 17.866c5.081 2.753 9.159 9.707 9.109 15.532-.05 5.825-4.21 8.315-9.291 5.562"/>
    <path fill="#00F081" d="M155.5776 366.8404s2.28-.773 3.284-3.406c.351-.921.575-2.003.585-3.236.049-5.664-3.929-12.448-8.868-15.124l-32.753-17.749c-2.316-1.255-4.49-1.417-6.122-.454-.919.541-1.724 1.148-2.162 2.271-.349.896-.781 3.524-.781 3.524.025-2.94.723-5.289 2.592-6.391 1.849-1.09 4.265-.933 6.803.443l32.753 17.748c5.14 2.785 9.281 9.845 9.23 15.738-.033 3.767-1.73 6.094-4.561 6.636"/>
    <path stroke="#D3D3D3" d="M135.5694 134.4834l-13.374 8.057m46.4606 10.9492l-13.374 8.057"/>
    <path stroke="#CECECE" d="M201.0962 172.6053l-12.474 7.515"/>
    <path stroke="#FDFDFC" d="M134.8776 133.7916l-13.374 8.057m46.4607 10.9492l-13.374 8.057m46.2178 11.0956l-13.131 7.911"/>
    <path stroke="#7B7B7B" d="M155.2824 191.9501v5.822"/>
    <path stroke="#DCDCDC" d="M154.5907 191.5378v5.822"/>
    <path stroke="#7B7B7B" d="M155.2824 203.7598v5.822"/>
    <path stroke="#DCDCDC" d="M154.5907 203.3475v5.822"/>
    <path stroke="#7B7B7B" d="M155.2824 215.6325v5.822"/>
    <path stroke="#DCDCDC" d="M154.5907 215.2201v5.822"/>
    <path stroke="#7B7B7B" d="M155.2824 241.6275v5.822"/>
    <path stroke="#DCDCDC" d="M154.5907 241.2152v5.822"/>
    <path stroke="#7B7B7B" d="M155.2824 253.5164v5.822"/>
    <path stroke="#DCDCDC" d="M154.5907 253.104v5.822"/>
    <path stroke="#7B7B7B" d="M155.2824 265.3119v5.822"/>
    <path stroke="#DCDCDC" d="M154.5907 264.8995v5.822"/>
    <path stroke="#7B7B7B" d="M155.2824 291.2512v5.822"/>
    <path stroke="#DCDCDC" d="M154.5907 290.8389v5.822"/>
    <path stroke="#7B7B7B" d="M155.2824 303.1612v5.822"/>
    <path stroke="#DCDCDC" d="M154.5907 302.7489v5.822"/>
    <path stroke="#7B7B7B" d="M155.2824 315.0357v5.822"/>
    <path stroke="#DCDCDC" d="M154.5907 314.6233v5.822"/>
    <path stroke="#7B7B7B" d="M188.3049 260.713v5.822"/>
    <path stroke="#DCDCDC" d="M187.6132 260.3006v5.822"/>
    <path stroke="#7B7B7B" d="M188.3049 272.6018v5.822"/>
    <path stroke="#DCDCDC" d="M187.6132 272.1895v5.822"/>
    <path stroke="#7B7B7B" d="M188.3049 310.3367v5.822"/>
    <path stroke="#DCDCDC" d="M187.6132 309.9243v5.822"/>
    <path stroke="#7B7B7B" d="M188.3049 322.2467v5.822"/>
    <path stroke="#DCDCDC" d="M187.6132 321.8343v5.822"/>
    <path stroke="gray" d="M201.0368 242.7098l-12.27 7.141"/>
  </g>
</svg>
