<?xml version="1.0" encoding="UTF-8" standalone="no"?>
<svg width="385px" height="367px" viewBox="0 0 385 367" version="1.1" xmlns="http://www.w3.org/2000/svg" xmlns:xlink="http://www.w3.org/1999/xlink">
    <!-- Generator: sketchtool 41.2 (35397) - http://www.bohemiancoding.com/sketch -->
    <title>C9306828-20BF-44AE-B482-45827E26C48B</title>
    <desc>Created with sketchtool.</desc>
    <defs>
        <path d="M0.579422011,5.02658756 C0.255447263,4.478618 0.126065802,3.86519559 0.247,3.242 C0.555,1.653 2.386,0.537 4.512,0.537 C4.773,0.537 5.037,0.554 5.305,0.589 C7.52528643,0.877655391 9.13254807,2.30749269 9.15223952,3.90321858 L9.15223952,3.9625208 C9.15047688,4.1053523 9.13596161,4.24941012 9.108,4.394 C9.06507937,4.61454029 8.99282987,4.82597746 8.8945348,5.02658756 L0.579422011,5.02658756 L0.579422011,5.02658756 Z" id="path-1"></path>
        <path d="M0.589631814,4.89938756 C0.265839663,4.35144485 0.136444343,3.73804561 0.257,3.115 C0.566,1.526 2.396,0.41 4.521,0.41 C4.782,0.41 5.047,0.427 5.314,0.462 C7.761,0.78 9.464,2.483 9.118,4.266 C9.07514617,4.48683347 9.0028701,4.69853961 8.90446819,4.89938756 L0.589631814,4.89938756 L0.589631814,4.89938756 Z" id="path-3"></path>
        <path d="M1.05784809,4.93928756 C0.734247182,4.39137022 0.605102262,3.77800771 0.726,3.155 C1.034,1.566 2.865,0.45 4.991,0.45 C5.251,0.45 5.516,0.467 5.783,0.502 C7.99226292,0.789222244 9.59620475,2.20632281 9.63103952,3.79172624 L9.63103952,3.89707658 C9.62806326,4.03251775 9.61358111,4.1690228 9.587,4.306 C9.54402945,4.52679682 9.47167709,4.73846934 9.37323009,4.93928756 L1.05784809,4.93928756 L1.05784809,4.93928756 Z" id="path-5"></path>
        <polygon id="path-7" points="95.7579 0.615 0.107168059 0.615 0.107168059 110.639217 95.7579 110.639217 95.7579 0.615"></polygon>
    </defs>
    <g id="Page-1" stroke="none" stroke-width="1" fill="none" fill-rule="evenodd">
        <g id="Wanted.tech-Copy" transform="translate(-810.000000, -574.000000)">
            <g id="Page-1" transform="translate(810.000000, 573.000000)">
                <g id="Group-24" transform="translate(0.000000, 140.385000)">
                    <path d="M154.8884,223.3305 L6.5374,137.9095 C2.3404,135.4825 0.2674,132.2245 0.2124,128.7515 C0.1744,126.4045 0.1644,122.9845 0.1644,122.9845 C0.1644,122.9845 7.1214,120.2305 10.5004,118.2845 L190.5654,14.7165 C202.5494,7.8155 220.2044,6.8125 229.9984,12.4755 L384.6694,98.9465 C384.6694,98.9465 385.0414,101.1655 384.6234,105.0565 C384.1604,109.3635 380.6824,113.8955 374.3864,117.5215 L194.3214,221.0895 C182.3384,227.9905 164.6834,228.9935 154.8884,223.3305" id="Fill-1" fill="#008A3E"></path>
                    <g id="Group-5" fill="#00BE60">
                        <path d="M154.6775,218.0581 L6.3265,132.6371 C-3.4685,126.9741 -1.6935,116.7881 10.2895,109.8871 L190.3545,6.3191 C202.3385,-0.5819 219.9935,-1.5849 229.7875,4.0781 L378.1385,89.4991 C387.9335,95.1621 386.1595,105.3481 374.1755,112.2491 L194.1105,215.8171 C182.1275,222.7181 164.4725,223.7211 154.6775,218.0581" id="Fill-3"></path>
                    </g>
                    <path d="M384.3798,98.946 C384.8408,103.381 381.5278,108.296 373.5448,112.784 L194.2298,215.916 C182.3488,222.758 164.8448,223.753 155.1338,218.138 L7.8078,133.309 C-1.2922,127.931 -1.2702,121.067 4.5168,115.077" id="Stroke-6" stroke="#00DC6C"></path>
                    <path d="M170.9442,189.0555 L56.6922,123.0705 C55.6822,122.4875 55.1832,121.4605 55.1972,120.4405 C55.2102,119.4465 55.1962,112.6925 55.1962,112.6925 L210.6002,28.6185 L302.3832,83.4045 L305.8412,108.9935 L305.8412,116.3405 L305.6672,116.7035 L180.5532,189.0555 C177.5802,190.7725 173.9172,190.7725 170.9442,189.0555" id="Fill-8" fill="#00A14B"></path>
                    <path d="M170.9442,187.7617 L56.6922,121.7767 C55.6822,121.1937 55.1832,120.1667 55.1972,119.1467 C55.2102,118.1527 55.1962,111.3987 55.1962,111.3987 L210.6002,27.3247 L302.3832,82.1107 L305.8412,107.6997 L305.8412,115.3087 L180.5532,187.7617 C177.5802,189.4787 173.9172,189.4787 170.9442,187.7617" id="Fill-10" fill="#CECECE"></path>
                    <path d="M305.8408,116.3404 L305.8408,108.9844 L182.2988,45.2514 L195.6508,37.5384 C200.8038,34.5624 207.1518,34.5614 212.3048,37.5374 L313.4728,95.9654 C314.8078,96.7374 318.1488,91.1604 318.1488,91.1604 C318.1488,91.1604 318.1638,102.3014 318.1558,104.1204 C318.1428,107.2614 316.5818,110.3974 313.4728,112.1924 L306.0248,116.4944 L305.8408,116.3404 Z" id="Fill-12" fill="#00A14B"></path>
                    <path d="M305.8408,115.3167 L305.8408,107.6997 L182.2988,43.9667 L195.6508,36.2537 C200.8038,33.2777 207.1518,33.2777 212.3048,36.2527 L313.4728,94.6817 C314.8078,95.4527 318.1488,89.8757 318.1488,89.8757 C318.1488,89.8757 318.1638,101.0167 318.1558,102.8357 C318.1428,105.9767 316.5818,109.1127 313.4728,110.9077 L305.8408,115.3167 Z" id="Fill-14" fill="#A1A1A1"></path>
                    <path d="M170.9442,180.0744 L56.6922,114.0894 C54.6982,112.9374 54.6982,110.0594 56.6922,108.9084 L182.9692,35.9544 L305.8272,107.7004 L305.8412,107.7154 L180.5532,180.0744 C177.5802,181.7914 173.9172,181.7914 170.9442,180.0744" id="Fill-16" fill="#F8F8F8"></path>
                    <path d="M305.8408,101.8392 L182.2988,30.4892 L195.6508,22.7762 C200.8038,19.8002 207.1518,19.8002 212.3048,22.7752 L313.4728,81.2042 C319.7178,84.8232 319.7178,93.8362 313.4728,97.4302 L305.8408,101.8392 Z" id="Fill-18" fill="#E1E1E1"></path>
                    <polygon id="Fill-20" fill="#CECECE" points="305.827 107.7 182.368 36.428 182.368 30.617 305.827 101.889"></polygon>
                    <path d="M208.1076,32.3221 C207.7616,34.1051 205.4976,35.2931 203.0506,34.9751 C200.6036,34.6571 198.9006,32.9541 199.2466,31.1711 C199.5936,29.3871 201.8576,28.1991 204.3046,28.5171 C206.7506,28.8351 208.4536,30.5391 208.1076,32.3221" id="Fill-22" fill="#D34340"></path>
                </g>
                <g id="Group-27" transform="translate(199.000000, 170.385000)">
                    <mask id="mask-2" fill="white">
                        <use xlink:href="#path-1"></use>
                    </mask>
                    <g id="Clip-26"></g>
                    <path d="M9.1076,2.3221 C8.7616,4.1051 6.4976,5.2931 4.0506,4.9751 C1.6036,4.6571 -0.0994,2.9541 0.2466,1.1711 C0.5936,-0.6129 2.8576,-1.8009 5.3046,-1.4829 C7.7506,-1.1649 9.4536,0.5391 9.1076,2.3221" id="Fill-25" fill="#FF6259" mask="url(#mask-2)"></path>
                </g>
                <path d="M218.118,178.5799 C217.772,180.3629 215.508,181.5509 213.061,181.2329 C210.614,180.9149 208.911,179.2119 209.257,177.4289 C209.604,175.6449 211.868,174.4579 214.315,174.7749 C216.761,175.0929 218.464,176.7969 218.118,178.5799" id="Fill-28" fill="#C78C27"></path>
                <g id="Group-32" transform="translate(209.000000, 176.385000)">
                    <mask id="mask-4" fill="white">
                        <use xlink:href="#path-3"></use>
                    </mask>
                    <g id="Clip-31"></g>
                    <path d="M9.118,2.1949 C8.772,3.9779 6.508,5.1659 4.061,4.8479 C1.614,4.5299 -0.089,2.8269 0.257,1.0439 C0.604,-0.7401 2.868,-1.9271 5.315,-1.6101 C7.761,-1.2921 9.464,0.4119 9.118,2.1949" id="Fill-30" fill="#FFBE2D" mask="url(#mask-4)"></path>
                </g>
                <path d="M228.5864,184.6198 C228.2404,186.4028 225.9764,187.5908 223.5294,187.2728 C221.0824,186.9548 219.3794,185.2518 219.7254,183.4688 C220.0724,181.6848 222.3364,180.4968 224.7834,180.8148 C227.2294,181.1328 228.9324,182.8368 228.5864,184.6198" id="Fill-33" fill="#339437"></path>
                <g id="Group-37" transform="translate(219.000000, 182.385000)">
                    <mask id="mask-6" fill="white">
                        <use xlink:href="#path-5"></use>
                    </mask>
                    <g id="Clip-36"></g>
                    <path d="M9.5864,2.2348 C9.2404,4.0178 6.9764,5.2058 4.5294,4.8878 C2.0824,4.5698 0.3794,2.8668 0.7254,1.0838 C1.0724,-0.7002 3.3364,-1.8882 5.7834,-1.5702 C8.2294,-1.2522 9.9324,0.4518 9.5864,2.2348" id="Fill-35" fill="#2ACA42" mask="url(#mask-6)"></path>
                </g>
                <g id="Group-123" transform="translate(55.000000, 0.385000)">
                    <path d="M250.8409,242.3883 L250.6029,242.2513 L127.0609,170.9003 L127.5369,170.0773 L250.8409,241.2903 L257.7619,237.3173 C260.5409,235.7183 262.2029,232.8473 262.2079,229.6393 C262.2089,228.5133 261.9149,226.2713 261.2829,224.9473 C260.1089,222.4863 258.2379,221.0913 258.2379,221.0913 C261.3239,222.8803 263.1639,226.0753 263.1589,229.6403 C263.1529,233.1923 261.3139,236.3693 258.2369,238.1403 L250.8409,242.3883 Z" id="Fill-38" fill="#F3F3F3"></path>
                    <path d="M250.827,241.8392 L250.827,255.3092" id="Stroke-40" stroke="#EBEBEB"></path>
                    <path d="M249.9114,248.1869 L249.9114,255.7959" id="Stroke-42" stroke="#B9B9B9"></path>
                    <path d="M70.0487,158.5862 C70.2017,158.4972 76.6447,162.4132 76.6447,162.4132 L74.2407,156.6632 L70.0487,155.2342 L70.0487,158.5862 Z" id="Fill-44" fill="#00487E"></path>
                    <path d="M14.8951,113.6834 L77.2111,77.6904 C79.9771,76.0924 83.0961,76.3254 85.4901,77.7674 C86.7391,78.5194 90.5521,80.6984 93.4791,82.3624 C95.9561,83.7714 95.8461,85.1364 95.8461,85.1364 L89.4301,130.4394 C89.4301,135.8764 86.5301,140.9004 81.8221,143.6194 L17.6741,180.6714 C16.0361,181.6164 18.5961,186.6094 18.5961,186.6094 C18.5961,186.6094 16.5181,186.6814 14.5291,185.5494 C11.3951,183.7644 7.1221,181.3254 5.9031,180.6024 C2.5671,178.6244 0.1961,175.0144 0.1961,170.5824 L0.1961,139.1474 C0.1961,128.6434 5.7991,118.9374 14.8951,113.6834" id="Fill-46" fill="#0094E1"></path>
                    <path d="M23.4202,118.5587 L85.7362,82.5657 C91.1662,79.4297 97.9552,83.3477 97.9552,89.6177 L97.9552,135.3147 C97.9552,140.7517 95.0552,145.7757 90.3472,148.4947 L77.2062,156.0847 L76.6492,162.4197 L73.4902,158.1577 L26.1992,185.5467 C18.4322,190.0327 8.7212,184.4267 8.7212,175.4577 L8.7212,144.0227 C8.7212,133.5187 14.3242,123.8127 23.4202,118.5587" id="Fill-48" fill="#0070CA"></path>
                    <path d="M19.9837,187.3497 C17.9387,187.3497 15.9107,186.8207 14.0737,185.7607 C10.4727,183.6817 8.3227,179.9047 8.3227,175.6577 L8.3227,144.0397 C8.3227,133.5737 14.0727,123.7507 23.3287,118.4047 L85.0587,82.7497 C87.8977,81.1147 91.1357,81.0307 93.7227,82.5267 C95.3467,83.4657 96.6977,84.8227 97.3817,86.5857 C94.5007,83.5687 94.0527,83.8147 93.2477,83.3497 C90.9257,82.0077 88.1137,82.0887 85.5337,83.5737 L23.8037,119.2277 C14.8407,124.4047 9.2737,133.9127 9.2737,144.0397 L9.2737,175.6577 C9.2737,179.5607 11.2457,183.0297 14.5497,184.9367 C15.9627,185.7527 17.4987,186.2267 19.0657,186.3597 C20.2797,186.4627 21.6937,186.5647 23.2587,186.3457 C24.5897,186.1597 26.1767,185.5727 26.1767,185.5727 C24.2197,186.7017 22.0977,187.3497 19.9837,187.3497" id="Fill-50" fill="#00BBF5"></path>
                    <path d="M76.5249,162.4304 C76.5249,162.4304 75.3019,161.4674 74.5839,160.7134 C73.8659,159.9584 73.1029,158.3824 73.1029,158.3824 L73.4899,158.1574 L76.6449,162.4134 L76.5249,162.4304 Z" id="Fill-52" fill="#0094E9"></path>
                    <path d="M160.9054,82.6152 C160.7524,82.5262 154.3094,86.4422 154.3094,86.4422 L156.7134,80.6922 L160.9054,79.2632 L160.9054,82.6152 Z" id="Fill-54" fill="#37346A"></path>
                    <g id="Group-58" transform="translate(135.000000, 0.000000)">
                        <mask id="mask-8" fill="white">
                            <use xlink:href="#path-7"></use>
                        </mask>
                        <g id="Clip-57"></g>
                        <path d="M81.0589,37.7123 L18.7429,1.7193 C15.9769,0.1213 12.8579,0.3543 10.4639,1.7963 C9.2149,2.5483 5.4019,4.7273 2.4749,6.3913 C-0.0021,7.8003 0.1079,9.1653 0.1079,9.1653 L6.5239,54.4683 C6.5239,59.9053 9.4239,64.9293 14.1319,67.6483 L78.2799,104.7003 C79.9169,105.6453 77.3579,110.6383 77.3579,110.6383 C77.3579,110.6383 79.4359,110.7103 81.4249,109.5783 C84.5589,107.7933 88.8319,105.3543 90.0509,104.6313 C93.3869,102.6533 95.7579,99.0433 95.7579,94.6113 L95.7579,63.1763 C95.7579,52.6723 90.1549,42.9663 81.0589,37.7123" id="Fill-56" fill="#705FC6" mask="url(#mask-8)"></path>
                    </g>
                    <path d="M207.5339,42.5876 L145.2179,6.5946 C139.7879,3.4586 132.9989,7.3766 132.9989,13.6466 L132.9989,59.3436 C132.9989,64.7806 135.8989,69.8046 140.6069,72.5236 L153.7479,80.1136 L154.3049,86.4486 L157.4639,82.1866 L204.7549,109.5756 C212.5219,114.0616 222.2329,108.4556 222.2329,99.4866 L222.2329,68.0516 C222.2329,57.5476 216.6299,47.8416 207.5339,42.5876" id="Fill-59" fill="#5F48A4"></path>
                    <path d="M210.9704,111.3786 C213.0154,111.3786 215.0434,110.8496 216.8804,109.7896 C220.4814,107.7106 222.6314,103.9336 222.6314,99.6866 L222.6314,68.0686 C222.6314,57.6026 216.8814,47.7796 207.6254,42.4336 L145.8954,6.7786 C143.0564,5.1436 139.8184,5.0596 137.2314,6.5556 C135.6074,7.4946 134.2564,8.8516 133.5724,10.6146 C136.4534,7.5976 136.9014,7.8436 137.7064,7.3786 C140.0284,6.0366 142.8404,6.1176 145.4204,7.6026 L207.1504,43.2566 C216.1134,48.4336 221.6804,57.9416 221.6804,68.0686 L221.6804,99.6866 C221.6804,103.5896 219.7084,107.0586 216.4044,108.9656 C214.9914,109.7816 213.4554,110.2556 211.8884,110.3886 C210.6744,110.4916 209.2604,110.5936 207.6954,110.3746 C206.3644,110.1886 204.7774,109.6016 204.7774,109.6016 C206.7344,110.7306 208.8564,111.3786 210.9704,111.3786" id="Fill-61" fill="#8985F8"></path>
                    <path d="M154.4292,86.4593 C154.4292,86.4593 155.6522,85.4973 156.3702,84.7423 C157.0882,83.9873 157.8512,82.4113 157.8512,82.4113 L157.4642,82.1863 L154.3092,86.4423 L154.4292,86.4593 Z" id="Fill-63" fill="#736ACA"></path>
                    <path d="M74.8735,169.4584 L74.8735,249.6144" id="Stroke-65" stroke="#E1E1E1"></path>
                    <path d="M154.0743,93.8972 L154.0743,223.3002" id="Stroke-67" stroke="#E1E1E1"></path>
                    <polygon id="Fill-69" fill="#E1E1E1" points="105.2905 213.519 113.0495 218.028 139.3995 202.814 131.6405 198.306"></polygon>
                    <polygon id="Fill-71" fill="#B6AEE5" points="140.1416 233.7722 147.9006 238.2812 173.5166 223.4922 165.7576 218.9832"></polygon>
                    <polygon id="Fill-73" fill="#E1E1E1" points="157.5671 243.8988 165.3261 248.4078 183.8671 237.7028 176.1081 233.1938"></polygon>
                    <polygon id="Fill-75" fill="#E1E1E1" points="89.6712 222.5672 160.9372 263.9822 163.1312 262.7162 91.8652 221.3002"></polygon>
                    <polygon id="Fill-77" fill="#E1E1E1" points="75.3958 230.8091 152.8438 275.8171 155.0408 274.5481 77.5928 229.5411"></polygon>
                    <polyline id="Fill-79" fill="#E1E1E1" points="141.1341 282.5772 63.6861 237.5692 61.4891 238.8382 138.9371 283.8452"></polyline>
                    <polygon id="Fill-81" fill="#E1E1E1" points="70.6398 233.555 68.4428 234.823 145.8908 279.831 148.0878 278.563"></polygon>
                    <polygon id="Fill-83" fill="#E1E1E1" points="49.7766 245.6003 47.5836 246.8663 125.0306 291.8743 127.2246 290.6083"></polygon>
                    <polygon id="Fill-85" fill="#E1E1E1" points="178.4628 261.0255 179.5598 260.3925 102.1118 215.3845 101.0148 216.0175"></polygon>
                    <polygon id="Fill-87" fill="#E1E1E1" points="130.4751 228.1545 138.7101 223.4005 130.9511 218.8915 122.7161 223.6455"></polygon>
                    <polygon id="Fill-89" fill="#E1E1E1" points="78.7269 287.0136 77.2649 287.8576 104.5369 303.7066 105.9989 302.8626"></polygon>
                    <polygon id="Fill-91" fill="#E1E1E1" points="82.349 226.7946 159.797 271.8026 161.994 270.5336 84.546 225.5266"></polygon>
                    <polygon id="Fill-93" fill="#A1D4EC" points="54.5362 242.8524 131.9842 287.8604 134.1812 286.5914 56.7332 241.5844"></polygon>
                    <polygon id="Fill-95" fill="#E1E1E1" points="40.6297 250.8813 118.0777 295.8893 120.2717 294.6223 42.8237 249.6143"></polygon>
                    <polygon id="Fill-97" fill="#E1E1E1" points="33.6764 254.8957 111.1244 299.9037 113.3184 298.6367 35.8704 253.6287"></polygon>
                    <polygon id="Fill-99" fill="#E1E1E1" points="174.9926 254.0254 182.7516 258.5344 220.4456 236.7714 212.6866 232.2624"></polygon>
                    <polygon id="Fill-101" fill="#0094E1" points="86.0192 104.9771 41.2762 130.8201 41.2762 124.5591 86.0192 98.7151"></polygon>
                    <polygon id="Fill-103" fill="#0094E1" points="86.0192 119.6249 41.2762 145.4679 41.2762 139.2069 86.0192 113.3629"></polygon>
                    <polygon id="Fill-105" fill="#0094E1" points="74.5054 140.8888 41.2754 160.1158 41.2754 153.8548 74.5054 134.6268"></polygon>
                    <path d="M26.7622,132.1365 C24.1872,133.6315 22.2112,137.5175 22.3552,140.7995 C22.4992,144.0815 24.7112,145.5355 27.2852,144.0405 C29.8602,142.5455 31.8372,138.6595 31.6932,135.3775 C31.5482,132.0955 29.3372,130.6415 26.7622,132.1365" id="Fill-107" fill="#0094E1"></path>
                    <path d="M27.3475,145.4534 C23.7705,147.5304 20.8525,152.2434 19.9255,156.9724 C19.5485,158.8944 20.5895,160.0684 21.9675,159.2674 L33.6445,152.4864 C35.0225,151.6864 35.9115,149.3924 35.3885,147.9924 C34.1015,144.5494 30.9245,143.3764 27.3475,145.4534" id="Fill-109" fill="#0094E1"></path>
                    <polygon id="Fill-111" fill="#705FC6" points="163.7732 40.649 208.5162 66.492 208.5162 60.231 163.7732 34.387"></polygon>
                    <polygon id="Fill-113" fill="#705FC6" points="163.7732 55.2969 208.5162 81.1399 208.5162 74.8789 163.7732 49.0349"></polygon>
                    <polygon id="Fill-115" fill="#705FC6" points="163.7732 69.9306 195.4452 88.2226 195.4452 81.9606 163.7732 63.6686"></polygon>
                    <path d="M149.6089,29.3452 C147.0339,27.8502 144.8229,29.3042 144.6779,32.5862 C144.5339,35.8682 146.5109,39.7542 149.0859,41.2492 C151.6599,42.7442 153.8719,41.2902 154.0159,38.0082 C154.1599,34.7262 152.1839,30.8402 149.6089,29.3452" id="Fill-117" fill="#705FC6"></path>
                    <path d="M140.9827,45.2015 C140.4597,46.6015 141.3487,48.8955 142.7267,49.6955 L154.4037,56.4765 C155.7817,57.2765 156.8227,56.1035 156.4457,54.1815 C155.5187,49.4525 152.6007,44.7395 149.0237,42.6625 C145.4467,40.5845 142.2697,41.7585 140.9827,45.2015" id="Fill-119" fill="#705FC6"></path>
                    <path d="M250.2983,248.0285 L249.9393,248.2355 L125.5533,320.0745 C122.5803,321.7915 118.9173,321.7915 115.9443,320.0745 L2.1993,254.3855 C0.2063,253.2335 0.2063,250.3555 2.1993,249.2045" id="Stroke-121" stroke="#FFFFFF"></path>
                </g>
            </g>
        </g>
    </g>
</svg>