<svg xmlns="http://www.w3.org/2000/svg" width="394" height="482" viewBox="0 0 394 482">
  <g fill="none" fill-rule="evenodd">
    <path fill="#E1E1E1" d="M378.6018 271.5522l-36.276-16.74-15.847-85.654 36.275 16.74"/>
    <path fill="#D9D9D9" d="M378.608 271.5859l14.552-10.135-15.848-85.654-14.552 10.135"/>
    <path fill="#EEE" d="M326.3841 169.3496l14.552-10.135 36.376 16.583-14.552 10.135"/>
    <path stroke="#FFF" stroke-width=".75" d="M362.7605 185.9321l-36.247-16.584m50.7988 6.4492l-14.552 10.135"/>
    <path stroke="#F3F3F3" stroke-width=".75" d="M362.7605 185.9321l15.835 85.587"/>
    <path fill="#A1A1A1" d="M357.567 224.9531l-22.696-10.454-1.263-6.789 22.704 10.459m3.8594 20.8608l-22.692-10.391-1.255-6.784 22.692 10.391"/>
    <path fill="#FFCA00" d="M335.144 70.3563c-1.574-.908-2.842-1.64-3.374-1.947-2.6-1.5-6.554-.987-10.981 1.851-7.83 5.018-11.007 11.234-11.007 19.033 0 5.67.902 19.344 5.026 21.746.623.363 2.766 1.567 5.284 3.008"/>
    <path fill="#DEA400" d="M313.1005 91.8234c0 7.923 3.589 26.934 11.183 21.811 7.833-5.285 14.404-28.11 14.404-36.034 0-7.923-6.449-10.213-14.404-5.114-7.956 5.099-11.183 11.414-11.183 19.337"/>
    <path fill="#FFD960" d="M321.8479 114.4765c-.07 0-.139-.002-.208-.006-6.066-.363-8.635-16.463-8.635-22.807 0-8.294 3.544-14.429 11.152-19.306 4.327-2.773 8.439-3.471 11.282-1.917 2.28 1.247 3.249 3.846 3.249 7.319 0 0-.298-2.631-.924-3.754-.619-1.108-1.605-2.082-2.783-2.726-2.528-1.381-6.285-.695-10.308 1.883-7.309 4.684-10.713 10.564-10.713 18.501 0 6.51 2.19 17.852 5.876 21.017.584.501 1.162.974 1.901 1.345.897.451 2.968-.661 2.968-.661-.964.739-1.924 1.112-2.857 1.112"/>
    <path fill="#404040" d="M331.4872 84.9261c.086 3.053-1.885 6.195-4.404 7.018-.653.213-.226 1.237-.226 1.237s-2.288-1.298-2.584-1.472c-1.113-.656-1.857-2.016-1.907-3.801-.087-3.053 1.885-6.195 4.404-7.018 1.043-.341 2.016-.231 2.804.232.393.23 1.993 1.142 1.993 1.142s-.113 1.502-.08 2.662"/>
    <path fill="#606060" d="M333.7487 86.2175c.087 3.055-1.887 6.199-4.408 7.023-2.52.824-4.634-.984-4.721-4.039-.086-3.055 1.887-6.2 4.408-7.024 2.521-.824 4.634.985 4.721 4.04"/>
    <path fill="#938751" d="M328.2086 93.4204c-2.046 0-3.523-1.759-3.594-4.282-.085-3.011 1.871-6.125 4.361-6.942 1.434-.468 2.836-.096 3.755.999 0 0-.384-.36-.727-.437-.367-.083-.835-.123-1.029-.179-.568-.163-1.198-.143-1.85.071-2.303.755-4.112 3.66-4.032 6.475.045 1.589.697 2.838 1.701 3.434.161.096.366.295.827.516.688.33 1.802.143 1.802.143-.409.133-.838.183-1.214.202"/>
    <path fill="#505E61" d="M336.425 123.0431s.154-.847-.325-.48c-.48.365-.947 2.519-1.076 3.927-.127 1.409-.175 2.686-1.078 4.108-.908 1.43-2.267 2.731-3.469 2.586-1.208-.146-2.132-.45-1.105-3.254 1.024-2.802 3.149-5.996 3.598-8.609.449-2.608.625-10.497.35-12.193-.282-1.696-1.138-1.73-2.214-1.07-1.088.651-1.64 2.162-1.64 3.957 0 1.803-.094 10.223-1.781 13.028-1.683 2.796-4.702 7.765-4.275 11.058.429 3.294 2.133 5.383 5.054 4.165 2.917-1.215 6.235-4.062 7.641-7.143 1.408-3.074 1.438-5.004 1.083-6.024-.352-1.015-1.247-2.652-.763-4.056"/>
    <path fill="#334245" d="M336.4004 122.5207h-.005m-7.3486 9.9427c.236.516.688 1.001 1.327 1.078 1.202.145 2.664-1.514 3.572-2.944.904-1.422.951-2.698 1.079-4.108.128-1.408.595-3.562 1.075-3.927.145-.114.236-.11.287-.05-.056-.095-.421-.211-.573-.06-.542.54-1.133 2.124-1.679 3.667-.472 1.334-1.028 2.336-1.936 3.759-.822 1.305-2.03 2.509-3.152 2.585"/>
    <path fill="#757E80" d="M330.6024 133.581c-.057 0-.114-.003-.17-.01-.601-.073-1.137-.502-1.433-1.15 0 0 .478.652 1.047.841.4.132.927-.169 1.008-.199.906-.334 1.934-1.535 2.624-2.622.767-1.208.86-2.276.968-3.514l.026-.302c.027-.294.084-.718.164-1.185.043-.253.495-2.07 1.264-2.877-.355.269-.868 2.631-1.002 4.101l-.026.3c-.108 1.24-.21 2.41-1.033 3.706-.444.7-1.966 2.911-3.437 2.911"/>
    <path fill="#334245" d="M323.4104 136.1011c-.428-3.293 2.592-8.262 4.274-11.058 1.687-2.805 1.782-11.225 1.782-13.028 0-1.795.552-3.306 1.64-3.957.608-.367 1.156-.524 1.551-.278-.604-.596-4.455-1.242-4.871-1.242-.321 0-.697.159-1.095.399-1.085.651-1.641 2.157-1.641 3.965 0 1.79.473 10.183-1.21 12.983-1.688 2.81-5.165 8.045-4.662 11.336.792 5.172 4.776 4.914 6.936 5.291-1.576-.513-2.412-2.184-2.704-4.411"/>
    <path stroke="#757E80" stroke-width=".5" d="M326.1145 140.5122c-1.576-.513-2.412-2.184-2.704-4.411-.428-3.293 2.592-8.262 4.274-11.058 1.687-2.805 1.782-11.225 1.782-13.028 0-1.795.552-3.306 1.64-3.957.608-.368 1.156-.524 1.551-.278-.605-.596-4.455-1.242-4.871-1.242-.321 0-.697.159-1.095.398-1.085.652-1.641 2.158-1.641 3.965"/>
    <path stroke="#334245" d="M322.8636-.0004v87.71M335.144 7.1049v89.236m-5.9596-92.6907v82.168"/>
    <path fill="#FFCA00" d="M346.8669 77.0053c-1.574-.908-2.842-1.64-3.374-1.947-2.6-1.5-6.554-.987-10.981 1.851-7.83 5.019-11.007 11.234-11.007 19.033 0 5.67.902 19.344 5.026 21.746.623.363 2.766 1.567 5.284 3.008"/>
    <path fill="#DEA400" d="M324.8234 98.4724c0 7.923 3.589 26.934 11.183 21.811 7.833-5.285 14.404-28.11 14.404-36.034 0-7.923-6.449-10.213-14.404-5.114-7.956 5.099-11.183 11.414-11.183 19.337"/>
    <path fill="#FFD960" d="M333.5707 121.1255c-.069 0-.139-.002-.208-.006-6.066-.363-8.635-16.462-8.635-22.807 0-8.294 3.544-14.429 11.152-19.306 4.327-2.773 8.439-3.471 11.282-1.917 2.28 1.247 3.249 3.846 3.249 7.319 0 0-.298-2.631-.924-3.754-.619-1.108-1.605-2.082-2.783-2.726-2.528-1.381-6.285-.695-10.308 1.883-7.309 4.684-10.713 10.564-10.713 18.501 0 6.51 2.19 17.852 5.876 21.017.584.501 1.162.974 1.901 1.345.897.451 2.968-.661 2.968-.661-.964.739-1.924 1.112-2.857 1.112"/>
    <path fill="#334245" d="M343.2101 91.5751c.086 3.053-1.885 6.194-4.404 7.018-.653.213-.226 1.237-.226 1.237s-2.288-1.298-2.584-1.472c-1.113-.656-1.857-2.016-1.907-3.801-.087-3.053 1.885-6.195 4.404-7.018 1.043-.341 2.016-.231 2.804.232.393.23 1.993 1.142 1.993 1.142s-.113 1.502-.08 2.662"/>
    <path fill="#505E61" d="M345.4716 92.8665c.087 3.055-1.887 6.199-4.408 7.023-2.52.824-4.634-.984-4.721-4.039-.086-3.055 1.887-6.2 4.408-7.024 2.521-.824 4.634.985 4.721 4.04"/>
    <path fill="#757E80" d="M339.9315 100.0694c-2.046 0-3.523-1.759-3.594-4.282-.085-3.011 1.871-6.125 4.361-6.942 1.434-.468 2.836-.096 3.755.999 0 0-.384-.36-.727-.437-.367-.083-.835-.123-1.029-.179-.568-.163-1.198-.143-1.85.071-2.303.755-4.112 3.66-4.032 6.475.045 1.589.697 2.838 1.701 3.434.161.096.366.295.827.516.688.33 1.802.143 1.802.143-.409.133-.838.183-1.214.202"/>
    <path stroke="#334245" d="M377.3123 175.7973s-15.027-6.31-26.373-16.317c-11.346-10.007-19.417-25.899-19.417-25.899-1.384-2.395-2.052-1.659-2.106-1.577-.054.082.021.178.053.38"/>
    <path stroke="#334245" d="M331.0547 133.0627s9.438 23.518 15.812 33.098c6.374 9.58 15.888 19.738 15.888 19.738m-40.2918-46.101s2.946 8.858 6.953 13.07c4.192 4.407 11.449 6.819 11.449 6.819m-18.402-19.889s-4.365 11.954-2.832 17.568c1.691 6.191 7.028 11.793 7.028 11.793"/>
  </g>
</svg>
