<svg xmlns="http://www.w3.org/2000/svg" xmlns:xlink="http://www.w3.org/1999/xlink" viewBox="0 0 406.09 323.08">
  <path fill="#5a8edb" d="M217.77 319.55L6 197.75c-4-2.3-5.9-5.3-5.9-8.6v-6.4s6.8-1.8 10.1-3.6l134.5-77.2c11.5-6.6 28.4-7.6 37.8-2.1l217.4 122.6a29.08 29.08 0 0 1 0 5.9c-.4 4.1-3.8 8.5-9.8 12l-134.5 77.2c-11.53 6.45-28.43 7.4-37.83 2z"/>
  <path fill="#6ba7ee" d="M217.47 314.45L6.07 192.85c-9.4-5.4-7.7-15.2 3.8-21.8l134.5-77.2c11.5-6.6 28.4-7.6 37.8-2.1l211.4 121.7c9.4 5.4 7.7 15.2-3.8 21.8l-134.5 77.2c-11.4 6.5-28.4 7.5-37.8 2z"/>
  <path fill="none" stroke="#9dcdee" stroke-miterlimit="10" d="M399.67 222.35c.4 4.3-2.7 9-10.4 13.3l-133.8 76.8c-11.4 6.6-28.2 7.5-37.5 2.1L7.57 193.45c-8.6-5.1-8.8-11.9-3.3-17.7"/>
  <path fill="#8f9297" d="M322.67 89.75l-152.6-88.1a2.13 2.13 0 0 0-2.3-.2c-.6.3-.3 1.6-.3 2.7l.1 117.8c0 2.1.7 4.3 2.5 5.4l152.6 88.1a1.82 1.82 0 0 0 2.7 0 1.9 1.9 0 0 0 .5-1.9V95.35a7 7 0 0 0-3.2-5.6z"/>
  <path fill="#45474d" d="M170.07 126.55a5.89 5.89 0 0 1-2.6-4.5V3.85a1.6 1.6 0 0 1 2.6-1.5l152.6 88.1a5.89 5.89 0 0 1 2.6 4.5v118.2a1.6 1.6 0 0 1-2.6 1.5z"/>
  <path fill="#5a8dad" d="M320.77 216.75l-102.3 59.1a7.2 7.2 0 0 1-6.4 0l-152.6-88.1a2.1 2.1 0 0 1-1.3-1.9v6.5a2.59 2.59 0 0 0 1.3 1.9l152.6 88.1a7.2 7.2 0 0 0 6.4 0l102.3-59.1a2.1 2.1 0 0 0 1.3-1.9v-6.6a2 2 0 0 1-1.3 2z"/>
  <path fill="#cacaca" d="M320.77 215.15l-102.3 59.1a7.2 7.2 0 0 1-6.4 0l-152.6-88.1a2.1 2.1 0 0 1-1.3-1.9v6.6a2.59 2.59 0 0 0 1.3 1.9l152.6 88.1a7.2 7.2 0 0 0 6.4 0l102.3-59.1a2.32 2.32 0 0 0 1.4-1.9v-6.5a2.18 2.18 0 0 1-1.4 1.8z"/>
  <path fill="#ebebeb" d="M320.77 215.15a1.9 1.9 0 0 0 0-3.7l-152.6-88.1a7.2 7.2 0 0 0-6.4 0l-102.3 59.1a1.9 1.9 0 0 0 0 3.7l152.6 88.1a7.2 7.2 0 0 0 6.4 0z"/>
  <path fill="none" stroke="#fff" stroke-miterlimit="10" d="M60.07 182.85a1.9 1.9 0 0 0 0 3.7l152 87.7a7.2 7.2 0 0 0 6.4 0l101.8-58.9a2 2 0 0 0 1.3-1.9c0-.5-.4-1.2-2.9-2.5"/>
  <path fill="#dbdbdb" d="M107.37 161.95v.8l146.4 84.6s.1.2.7.2a.94.94 0 0 0 .8-.3l59.8-34.4-147.7-85.4z"/>
  <path fill="none" stroke="#fff" stroke-miterlimit="10" d="M107.37 161.95v.8l146.4 84.6s.1.2.7.2a.94.94 0 0 0 .8-.3l59.8-34.4"/>
  <path fill="#e6e8ea" d="M198.47 219.65a.61.61 0 0 0 .4-.9c-.1-.2-.2-.4-.4-.4L156.37 194a2.55 2.55 0 0 0-2.4 0l-33.8 19.5a.61.61 0 0 0-.4.9c.1.2.2.4.4.4l42.1 24.3a2.55 2.55 0 0 0 2.4 0l33.8-19.5z"/>
  <path fill="#b5b5b1" d="M120.17 214.55L154 195a2.55 2.55 0 0 1 2.4 0l42.1 24.3c.1.1.2.1.3.2q.6-.6-.3-1.2L156.37 194a2.55 2.55 0 0 0-2.4 0l-33.8 19.5a.79.79 0 0 0-.3 1.2c.13-.05.2-.15.3-.15z"/>
  <path fill="#acadab" d="M132.57 148.35l33.8-19.5a2.55 2.55 0 0 1 2.4 0l145.8 84.1.5.2c.4-.4.1-.9-.5-1.2l-145.8-84.1a2.55 2.55 0 0 0-2.4 0l-58.7 33.8a.79.79 0 0 0-.3 1.2c.2-.1 25.1-14.5 25.2-14.5z"/>
  <path fill="none" stroke="#fff" stroke-miterlimit="10" d="M120.67 213.95a.61.61 0 0 0-.4.9c.1.2.2.4.4.4l41.6 24a2.55 2.55 0 0 0 2.4 0l33.4-19.3a.61.61 0 0 0 .4-.9c-.1-.2-.2-.4-.4-.4"/>
  <path fill="#c2c2c1" d="M126 224.65v1.7a2.4 2.4 0 0 0 1.2 2l17.2 9.9c.7.4 1.2.1 1.2-.7v-1.7l-19.6-11.2z"/>
  <path fill="#ebebeb" d="M144.87 238.75a1.85 1.85 0 0 1-.7-.2l-17.2-9.9a2.8 2.8 0 0 1-1-2.4 4.23 4.23 0 0 0 .4 1.2 2.18 2.18 0 0 0 .9.7l17.2 9.9a.75.75 0 0 0 .5.1.37.37 0 0 0 .3-.1c.2-.1.3-.6.3-.6 0 .5.1.9-.2 1a.54.54 0 0 1-.5.3z"/>
  <path fill="#44484b" d="M184.27 188.75l7.9-4.6a1.48 1.48 0 0 1 1.3 0l7.9 4.6a.37.37 0 0 1 .2.5.22.22 0 0 1-.2.2l-7.9 4.6a1.48 1.48 0 0 1-1.3 0l-7.9-4.6a.37.37 0 0 1-.2-.5.22.22 0 0 1 .2-.2zm-11.6-6.8l7.9-4.5a1.48 1.48 0 0 1 1.3 0l7.9 4.6a.37.37 0 0 1 .2.5.22.22 0 0 1-.2.2l-7.9 4.6a1.48 1.48 0 0 1-1.3 0l-7.9-4.6a.4.4 0 0 1 0-.8zM161 176l7.9 4.6a1.48 1.48 0 0 0 1.3 0l7.9-4.6a.37.37 0 0 0 .2-.5.22.22 0 0 0-.2-.2l-7.9-4.6a1.48 1.48 0 0 0-1.3 0l-7.9 4.6a.37.37 0 0 0-.2.5z"/>
  <path fill="#44484b" d="M161 176l7.9 4.6a1.48 1.48 0 0 0 1.3 0l7.9-4.6a.37.37 0 0 0 .2-.5.22.22 0 0 0-.2-.2l-7.9-4.6a1.48 1.48 0 0 0-1.3 0l-7.9 4.6a.37.37 0 0 0-.2.5zm8-18.8l-7.9 4.6a.37.37 0 0 0-.2.5.22.22 0 0 0 .2.2l7.9 4.6a1.48 1.48 0 0 0 1.3 0l7.9-4.6a.37.37 0 0 0 .2-.5.22.22 0 0 0-.2-.2l-7.9-4.6a1.48 1.48 0 0 0-1.3.05zm20.8-2.2l-7.9-4.6a1.48 1.48 0 0 0-1.3 0l-7.9 4.6a.37.37 0 0 0-.2.5.22.22 0 0 0 .2.2l7.9 4.6a1.48 1.48 0 0 0 1.3 0l7.9-4.6a.37.37 0 0 0 .2-.5zm11.6 6.8l-7.9-4.6a1.48 1.48 0 0 0-1.3 0l-7.9 4.6a.37.37 0 0 0-.2.5.22.22 0 0 0 .2.2l7.9 4.6a1.48 1.48 0 0 0 1.3 0l7.9-4.6a.37.37 0 0 0 .2-.5c-.03-.05-.03-.15-.23-.15zm41.2 47.8l7.9 4.6a1.48 1.48 0 0 0 1.3 0l7.9-4.6a.37.37 0 0 0 .2-.5.22.22 0 0 0-.2-.2l-8-4.6a1.48 1.48 0 0 0-1.3 0l-7.9 4.6a.37.37 0 0 0-.2.5c.07.05.17.15.27.25zM196 196.15l7.9 4.6a1.48 1.48 0 0 0 1.3 0l7.9-4.6a.37.37 0 0 0 .2-.5.22.22 0 0 0-.2-.2l-7.9-4.5a1.48 1.48 0 0 0-1.3 0l-7.9 4.6a.35.35 0 0 0-.1.5.1.1 0 0 0 .1.1zm44.1 11.3l7.9-4.6a.37.37 0 0 0 .2-.5.22.22 0 0 0-.2-.2l-7.9-4.6a1.48 1.48 0 0 0-1.3 0l-7.9 4.6a.37.37 0 0 0-.2.5.22.22 0 0 0 .2.2l7.9 4.6a1.48 1.48 0 0 0 1.27 0zm-11.7-6.7l7.9-4.6a.37.37 0 0 0 .2-.5.22.22 0 0 0-.2-.2l-7.9-4.5a1.48 1.48 0 0 0-1.3 0l-7.9 4.6a.37.37 0 0 0-.2.5.22.22 0 0 0 .2.2l7.9 4.6a1.9 1.9 0 0 0 1.27-.1zm-9.2 8.9l7.9 4.6a1.48 1.48 0 0 0 1.3 0l7.9-4.6a.37.37 0 0 0 .2-.5.22.22 0 0 0-.2-.2l-7.9-4.6a1.48 1.48 0 0 0-1.3 0l-7.9 4.6a.37.37 0 0 0-.2.5.22.22 0 0 1 .17.2zm46.6-13.5l7.9 4.6a1.48 1.48 0 0 0 1.3 0l7.9-4.6a.37.37 0 0 0 .2-.5.22.22 0 0 0-.2-.2l-7.9-4.5a1.48 1.48 0 0 0-1.3 0l-7.9 4.6a.37.37 0 0 0-.2.5c.1 0 .1.1.2.1zm-52.7-27.6l-7.9-4.6a1.48 1.48 0 0 0-1.3 0l-7.9 4.6a.37.37 0 0 0-.2.5.22.22 0 0 0 .2.2l7.9 4.6a1.48 1.48 0 0 0 1.3 0l7.9-4.6a.37.37 0 0 0 .2-.5.22.22 0 0 0-.23-.2zm-28.8 7.5l7.9 4.6a1.48 1.48 0 0 0 1.3 0l7.9-4.6a.37.37 0 0 0 .2-.5.22.22 0 0 0-.2-.2l-7.9-4.6a1.48 1.48 0 0 0-1.3 0l-7.9 4.6a.37.37 0 0 0-.2.5zm11.7 6.7l7.9 4.6a1.48 1.48 0 0 0 1.3 0l7.9-4.6a.37.37 0 0 0 .2-.5.22.22 0 0 0-.2-.2l-7.9-4.5a1.48 1.48 0 0 0-1.3 0l-7.9 4.6a.35.35 0 0 0-.1.5l.1.1zm46.6 13.4l7.9 4.6a1.48 1.48 0 0 0 1.3 0l7.9-4.6a.37.37 0 0 0 .2-.5.22.22 0 0 0-.2-.2l-8-4.5a1.48 1.48 0 0 0-1.3 0l-7.9 4.5a.37.37 0 0 0-.2.5c.07.05.17.2.27.2zm-52.8-27.6l-7.9-4.6a1.48 1.48 0 0 0-1.3 0l-7.9 4.6a.37.37 0 0 0-.2.5.22.22 0 0 0 .2.2l7.9 4.6a1.48 1.48 0 0 0 1.3 0l7.9-4.6a.37.37 0 0 0 .2-.5.22.22 0 0 0-.23-.2zm17.8 20.9l7.9 4.6a1.48 1.48 0 0 0 1.3 0l7.9-4.6a.37.37 0 0 0 .2-.5.22.22 0 0 0-.2-.2l-7.9-4.5a1.48 1.48 0 0 0-1.3 0l-7.9 4.6a.37.37 0 0 0-.2.5c.1 0 .1.1.2.1zm17.1-14.2l-7.9-4.6a1.48 1.48 0 0 0-1.3 0l-7.9 4.6a.37.37 0 0 0-.2.5.22.22 0 0 0 .2.2l7.9 4.6a1.48 1.48 0 0 0 1.3 0l7.9-4.6a.37.37 0 0 0 .2-.5zm11.7 6.7l-7.9-4.5a1.48 1.48 0 0 0-1.3 0l-7.9 4.6a.37.37 0 0 0-.2.5.22.22 0 0 0 .2.2l7.9 4.6a1.48 1.48 0 0 0 1.3 0l7.9-4.6a.4.4 0 0 0 0-.8zm11.6 6.8l-7.9-4.5a1.48 1.48 0 0 0-1.3 0l-7.9 4.6a.37.37 0 0 0-.2.5.22.22 0 0 0 .2.2l7.9 4.6a1.48 1.48 0 0 0 1.3 0l7.9-4.6a.43.43 0 0 0 .4-.4.37.37 0 0 0-.4-.4zm-40.4 14.1l7.9 4.6a1.48 1.48 0 0 0 1.3 0l7.9-4.6a.37.37 0 0 0 .2-.5.22.22 0 0 0-.2-.2l-7.9-4.6a1.48 1.48 0 0 0-1.3 0l-7.9 4.6a.37.37 0 0 0-.2.5.22.22 0 0 0 .17.2zm-81.5-47l19.6 11.3a1.48 1.48 0 0 0 1.3 0l7.9-4.6a.37.37 0 0 0 .2-.5.22.22 0 0 0-.2-.2l-19.6-11.3a1.48 1.48 0 0 0-1.3 0l-7.9 4.5a.55.55 0 0 0-.3.5l.3.3zm98.6 59.8l-66.2-38.2a1.48 1.48 0 0 0-1.3 0l-7.9 4.6a.37.37 0 0 0-.2.5.22.22 0 0 0 .2.2l66.2 38.2a1.48 1.48 0 0 0 1.3 0l7.9-4.6a.37.37 0 0 0 .2-.5.22.22 0 0 0-.23-.2zm-81.2-46.7c0-.2-.1-.3-.3-.4l-7.9-4.6a1.48 1.48 0 0 0-1.3 0l-7.9 4.6a.37.37 0 0 0-.2.5.22.22 0 0 0 .2.2l7.9 4.6a1.48 1.48 0 0 0 1.3 0l7.9-4.6a.32.32 0 0 0 .27-.3zm11.4 6.3l-7.9-4.6a1.48 1.48 0 0 0-1.3 0l-7.9 4.6a.37.37 0 0 0-.2.5.22.22 0 0 0 .2.2l7.9 4.6a1.48 1.48 0 0 0 1.3 0l7.9-4.6a.37.37 0 0 0 .2-.5zm139.7 26.9l-7.9-4.6a1.48 1.48 0 0 0-1.3 0l-7.9 4.6a.37.37 0 0 0-.2.5.22.22 0 0 0 .2.2l7.9 4.6a1.48 1.48 0 0 0 1.3 0l7.9-4.6a.55.55 0 0 0 .3-.5c-.03-.1-.23-.2-.33-.2zm-11.7 6.7l-7.9-4.6a1.48 1.48 0 0 0-1.3 0l-7.9 4.6a.37.37 0 0 0-.2.5.22.22 0 0 0 .2.2l7.9 4.6a1.48 1.48 0 0 0 1.3 0l7.9-4.6c.2 0 .3-.3.3-.5a1.24 1.24 0 0 0-.33-.2zM271.27 229l-19.6-11.3a1.48 1.48 0 0 0-1.3 0l-7.9 4.6a.37.37 0 0 0-.2.5.22.22 0 0 0 .2.2l19.6 11.3a1.48 1.48 0 0 0 1.3 0l7.9-4.6a.37.37 0 0 0 .2-.5.22.22 0 0 0-.2-.2zm0-13.4l-7.9-4.6a1.48 1.48 0 0 0-1.3 0l-7.9 4.6a.37.37 0 0 0-.2.5.22.22 0 0 0 .2.2l7.9 4.6a1.48 1.48 0 0 0 1.3 0l7.9-4.6a.55.55 0 0 0 .3-.5c-.1-.05-.2-.15-.3-.15zm-28.7-32.9l7.9 4.6a1.48 1.48 0 0 0 1.3 0l7.9-4.6a.37.37 0 0 0 .2-.5.22.22 0 0 0-.2-.2l-8-4.5a1.48 1.48 0 0 0-1.3 0l-7.9 4.5a.37.37 0 0 0-.2.5c.1 0 .2.1.3.2zm-11.7-6.7l7.9 4.6a1.48 1.48 0 0 0 1.3 0L248 176a.37.37 0 0 0 .2-.5.22.22 0 0 0-.2-.2l-7.9-4.6a1.48 1.48 0 0 0-1.3 0l-7.9 4.6a.55.55 0 0 0-.3.5c.07.05.17.15.27.2zm-11.7-6.8l7.9 4.6a1.48 1.48 0 0 0 1.3 0l7.9-4.6a.37.37 0 0 0 .2-.5.22.22 0 0 0-.2-.2l-7.9-4.6a1.48 1.48 0 0 0-1.3 0l-7.9 4.6a.37.37 0 0 0-.2.5.22.22 0 0 0 .2.25zm-11.6-6.7l7.9 4.6a1.48 1.48 0 0 0 1.3 0l7.9-4.6a.37.37 0 0 0 .2-.5.22.22 0 0 0-.2-.2l-7.9-4.6a1.48 1.48 0 0 0-1.3 0l-7.9 4.6a.37.37 0 0 0-.2.5.22.22 0 0 0 .2.25zm55.8 44.9l7.9-4.6a.37.37 0 0 0 .2-.5.22.22 0 0 0-.2-.2l-7.9-4.6a1.48 1.48 0 0 0-1.3 0l-7.9 4.6a.37.37 0 0 0-.2.5.22.22 0 0 0 .2.2l7.9 4.6a1.48 1.48 0 0 0 1.3.05zm-114-51.6l7.9 4.6a1.48 1.48 0 0 0 1.3 0l7.9-4.6a.37.37 0 0 0 .2-.5.22.22 0 0 0-.2-.2l-7.9-4.6a1.48 1.48 0 0 0-1.3 0l-7.9 4.6a.37.37 0 0 0-.2.5zm104.8 33.6l7.9 4.6a1.48 1.48 0 0 0 1.3 0l7.9-4.6a.37.37 0 0 0 .2-.5.22.22 0 0 0-.2-.2l-7.9-4.5a1.48 1.48 0 0 0-1.3 0l-7.9 4.6a.37.37 0 0 0-.2.5.35.35 0 0 0 .2.1zM161 149.15l7.9 4.6a1.48 1.48 0 0 0 1.3 0l7.9-4.6a.37.37 0 0 0 .2-.5.22.22 0 0 0-.2-.2l-7.9-4.6a1.48 1.48 0 0 0-1.3 0l-7.9 4.6a.37.37 0 0 0-.2.5zm11.7-6.8l7.9 4.6a1.48 1.48 0 0 0 1.3 0l7.9-4.6a.37.37 0 0 0 .2-.5.22.22 0 0 0-.2-.2l-7.9-4.6a1.48 1.48 0 0 0-1.3 0l-7.9 4.6a.37.37 0 0 0-.2.5.22.22 0 0 0 .17.2zm23.3 13.5l7.9 4.6a1.48 1.48 0 0 0 1.3 0l7.9-4.6a.37.37 0 0 0 .2-.5.22.22 0 0 0-.2-.2l-7.9-4.6a1.48 1.48 0 0 0-1.3 0l-7.9 4.6a.43.43 0 0 0-.4.4.45.45 0 0 0 .4.3zm-11.7-6.7l7.9 4.6a1.48 1.48 0 0 0 1.3 0l7.9-4.6a.37.37 0 0 0 .2-.5.22.22 0 0 0-.2-.2l-7.9-4.6a1.48 1.48 0 0 0-1.3 0l-7.9 4.6a.37.37 0 0 0-.2.5z"/>
  <path fill="#272726" d="M143.17 170.75l-7.9 4.6a1.48 1.48 0 0 1-1.3 0l-7.9-4.6a1.38 1.38 0 0 1-.3-.4v-1.5c0 .2.1.3.3.4l7.9 4.6a1.48 1.48 0 0 0 1.3 0l7.9-4.6a1.38 1.38 0 0 0 .3-.4v1.5c0 .2-.1.3-.3.4zm11.9 6.3v-1.5c0 .2-.1.3-.3.4l-7.9 4.6a1.48 1.48 0 0 1-1.3 0l-7.9-4.6a1.38 1.38 0 0 1-.3-.4V177c0 .2.1.3.3.4l7.9 4.6a1.48 1.48 0 0 0 1.3 0l7.9-4.6c.23-.05.3-.15.3-.4zm-29-19.7l19.6 11.3a1.48 1.48 0 0 0 1.3 0l7.9-4.6a1.38 1.38 0 0 0 .3-.4v-1.5c0 .2-.1.3-.3.4l-7.9 4.6a1.48 1.48 0 0 1-1.3 0l-19.6-11.3a1.38 1.38 0 0 1-.3-.4v1.5c.1.05.23.3.3.4zm98.9 60.1v-1.5c0 .2-.1.3-.3.4l-7.9 4.6a1.48 1.48 0 0 1-1.3 0l-66.2-38.2a1.38 1.38 0 0 1-.3-.4v1.5c0 .2.1.3.3.4l66.2 38.2a1.48 1.48 0 0 0 1.3 0l7.9-4.6a.54.54 0 0 0 .33-.4zm-75.6-60.1l7.9 4.6a1.48 1.48 0 0 0 1.3 0l7.9-4.6a1.38 1.38 0 0 0 .3-.4v-1.5c0 .2-.1.3-.3.4l-7.9 4.6a1.48 1.48 0 0 1-1.3 0l-7.9-4.6a1.38 1.38 0 0 1-.3-.4v1.5c0 .2.1.3.3.4zm19.6 9.8l-7.9-4.6a1.38 1.38 0 0 1-.3-.4v1.5c0 .2.1.3.3.4l7.9 4.6a1.48 1.48 0 0 0 1.3 0l7.9-4.6a1.38 1.38 0 0 0 .3-.4v-1.5c0 .2-.1.3-.3.4l-7.9 4.6a1.48 1.48 0 0 1-1.27 0zm73.6 43.9l7.9 4.6a1.48 1.48 0 0 0 1.3 0l7.9-4.6a1.38 1.38 0 0 0 .3-.4v-1.5c0 .2-.1.3-.3.4l-7.9 4.6a1.48 1.48 0 0 1-1.3 0l-7.9-4.5a1.38 1.38 0 0 1-.3-.4v1.5q0 .15.3.3zm28.7 5.3l-7.9 4.6a1.48 1.48 0 0 1-1.3 0l-7.9-4.6a1.38 1.38 0 0 1-.3-.4v1.5c0 .2.1.3.3.4l7.9 4.6a1.48 1.48 0 0 0 1.3 0l7.9-4.6a1.38 1.38 0 0 0 .3-.4v-1.5a1.38 1.38 0 0 1-.3.4zm-31.2-7.4l7.9-4.6a1.38 1.38 0 0 0 .3-.4v-1.5c0 .2-.1.3-.3.4l-7.9 4.6a1.48 1.48 0 0 1-1.3 0l-7.9-4.6a1.38 1.38 0 0 1-.3-.4v1.5c0 .2.1.3.3.4l7.9 4.6a1.48 1.48 0 0 0 1.3 0zm-11.7-6.8l7.9-4.6a1.38 1.38 0 0 0 .3-.4v-1.5c0 .2-.1.3-.3.4l-7.9 4.6a1.48 1.48 0 0 1-1.3 0l-7.9-4.6a1.38 1.38 0 0 1-.3-.4v1.5c0 .2.1.3.3.4l7.9 4.6a1 1 0 0 0 1.3 0zm-32.4-18l7.9 4.6a1.48 1.48 0 0 0 1.3 0l7.9-4.6a1.38 1.38 0 0 0 .3-.4v-1.5c0 .2-.1.3-.3.4l-7.9 4.6a1.48 1.48 0 0 1-1.3 0l-7.9-4.6a1.38 1.38 0 0 1-.3-.4v1.5c0 .2.1.4.33.4zm11.6 6.7l7.9 4.6a1.48 1.48 0 0 0 1.3 0l7.9-4.6a1.38 1.38 0 0 0 .3-.4V189c0 .2-.1.3-.3.4l-7.9 4.6a1.48 1.48 0 0 1-1.3 0l-7.9-4.6a1.38 1.38 0 0 1-.3-.4v1.5c.1.15.2.35.3.35zm-17.5-20.5v-1.5c0 .2-.1.3-.3.4l-7.9 4.6a1.48 1.48 0 0 1-1.3 0l-7.9-4.6a1.38 1.38 0 0 1-.3-.4v1.5c0 .2.1.3.3.4l7.9 4.6a1.48 1.48 0 0 0 1.3 0l8-4.6c.13-.1.13-.2.2-.4zM161 150.55l7.9 4.6a1.48 1.48 0 0 0 1.3 0l7.9-4.6a1.38 1.38 0 0 0 .3-.4v-1.5c0 .2-.1.3-.3.4l-7.9 4.6a1.48 1.48 0 0 1-1.3 0L161 149a1.38 1.38 0 0 1-.3-.4v1.5c.07.25.17.45.3.45zm28.8 5.3l-7.9 4.6a1.48 1.48 0 0 1-1.3 0l-7.9-4.6a1.38 1.38 0 0 1-.3-.4v1.5c0 .2.1.3.3.4l7.9 4.6a1.48 1.48 0 0 0 1.3 0l7.9-4.5a1.38 1.38 0 0 0 .3-.4v-1.5q0 .15-.3.3zm73.6 53.1l7.9-4.6a1.38 1.38 0 0 0 .3-.4v-1.5c0 .2-.1.3-.3.4l-7.9 4.6a1.48 1.48 0 0 1-1.3 0l-7.9-4.6a1.38 1.38 0 0 1-.3-.4v1.5c0 .2.1.3.3.4l7.9 4.6a1.48 1.48 0 0 0 1.27 0zm19.5.7l-7.9 4.6a1.48 1.48 0 0 1-1.3 0l-7.9-4.6a1.38 1.38 0 0 1-.3-.4v1.5c0 .2.1.3.3.4l7.9 4.6a1.48 1.48 0 0 0 1.3 0l7.9-4.6a1.38 1.38 0 0 0 .3-.4v-1.5c-.03.2-.13.3-.33.4zm-34.9-20.2l-7.9 4.6a1.48 1.48 0 0 1-1.3 0l-7.9-4.6a1.38 1.38 0 0 1-.3-.4v1.5c0 .2.1.3.3.4l7.9 4.6a1.48 1.48 0 0 0 1.3 0l7.9-4.6a1.38 1.38 0 0 0 .3-.4V189c-.03.25-.13.35-.3.45zm-5.7 6.4v1.5c0 .2.1.3.3.4l7.9 4.6a1.48 1.48 0 0 0 1.3 0l7.9-4.6a1.38 1.38 0 0 0 .3-.4v-1.5c0 .2-.1.3-.3.4l-7.9 4.6a1.48 1.48 0 0 1-1.3 0l-7.9-4.6a.54.54 0 0 1-.33-.4zM224.67 176l-7.9 4.6a1.48 1.48 0 0 1-1.3 0l-7.9-4.6a1.38 1.38 0 0 1-.3-.4v1.5c0 .2.1.3.3.4l7.9 4.6a1.48 1.48 0 0 0 1.3 0l7.9-4.6a1.38 1.38 0 0 0 .3-.4v-1.5a.54.54 0 0 1-.3.4zm11.7 6.7l-7.9 4.6a1.48 1.48 0 0 1-1.3 0l-7.9-4.6a1.38 1.38 0 0 1-.3-.4v1.5c0 .2.1.3.3.4l7.9 4.6a1.48 1.48 0 0 0 1.3 0l7.9-4.6a1.38 1.38 0 0 0 .3-.4v-1.5a1.38 1.38 0 0 1-.3.45zm-35-20.2l-7.9 4.6a1.48 1.48 0 0 1-1.3 0l-7.9-4.6a1.38 1.38 0 0 1-.3-.4v1.5c0 .2.1.3.3.4l7.9 4.6a1.48 1.48 0 0 0 1.3 0l7.9-4.6a1.38 1.38 0 0 0 .3-.4v-1.5c0 .25-.1.35-.3.45zm-28.7-18.7l7.9 4.6a1.48 1.48 0 0 0 1.3 0l7.9-4.6a1.38 1.38 0 0 0 .3-.4V142c0 .2-.1.3-.3.4l-7.9 4.6a1.48 1.48 0 0 1-1.3 0l-7.9-4.6a1.38 1.38 0 0 1-.3-.4v1.5a.32.32 0 0 0 .3.35z"/>
  <path fill="#44484b" d="M131.77 162.15c0-.2-.1-.3-.3-.4l-8-4.6a1.48 1.48 0 0 0-1.3 0l-7.9 4.6a.37.37 0 0 0-.2.5.22.22 0 0 0 .2.2l7.9 4.6a1.48 1.48 0 0 0 1.3 0l7.9-4.6c.3 0 .4-.1.4-.3zm5.9-13l7.9 4.6a1.48 1.48 0 0 0 1.3 0l7.9-4.6a.37.37 0 0 0 .2-.5.22.22 0 0 0-.2-.2l-7.9-4.6a1.48 1.48 0 0 0-1.3 0l-7.9 4.6a.37.37 0 0 0-.2.5zm11.7-6.8l7.9 4.6a1.48 1.48 0 0 0 1.3 0l7.9-4.6a.37.37 0 0 0 .2-.5.22.22 0 0 0-.2-.2l-7.9-4.6a1.48 1.48 0 0 0-1.3 0l-7.9 4.6a.37.37 0 0 0-.2.5.22.22 0 0 0 .2.2zm11.6-6.7l7.9 4.6a1.48 1.48 0 0 0 1.3 0l7.9-4.6a.37.37 0 0 0 .2-.5.22.22 0 0 0-.2-.2l-7.9-4.6a1.48 1.48 0 0 0-1.3 0l-7.9 4.6a.37.37 0 0 0-.2.5.22.22 0 0 0 .23.2z"/>
  <path fill="#272726" d="M131.57 164l-8 4.6a1.48 1.48 0 0 1-1.3 0l-7.9-4.6a1.38 1.38 0 0 1-.3-.4v-1.5c0 .2.1.3.3.4l7.9 4.6a1.48 1.48 0 0 0 1.3 0l7.9-4.6a1.38 1.38 0 0 0 .3-.4v1.5a.52.52 0 0 1-.2.4zm6.1-13.5l7.9 4.6a1.48 1.48 0 0 0 1.3 0l7.9-4.6a1.38 1.38 0 0 0 .3-.4v-1.5c0 .2-.1.3-.3.4l-7.9 4.6a1.48 1.48 0 0 1-1.3 0l-7.9-4.6a1.38 1.38 0 0 1-.3-.4v1.5c.1.25.2.45.3.45zm11.7-6.7l7.9 4.6a1.48 1.48 0 0 0 1.3 0l7.9-4.6a1.38 1.38 0 0 0 .3-.4V142c0 .2-.1.3-.3.4l-7.9 4.6a1.48 1.48 0 0 1-1.3 0l-7.9-4.6a1.38 1.38 0 0 1-.3-.4v1.5a.32.32 0 0 0 .3.35zm11.6-6.7l7.9 4.6a1.48 1.48 0 0 0 1.3 0l7.9-4.6a1.38 1.38 0 0 0 .3-.4v-1.5c0 .2-.1.3-.3.4l-7.9 4.6a1.48 1.48 0 0 1-1.3 0l-7.9-4.6a1.38 1.38 0 0 1-.3-.4v1.5a1.38 1.38 0 0 0 .33.45zm23.1 11.6v1.5c0 .2.1.3.3.4l7.9 4.6a1.48 1.48 0 0 0 1.3 0l7.9-4.6a1.38 1.38 0 0 0 .3-.4v-1.5c0 .2-.1.3-.3.4l-7.9 4.6a1.48 1.48 0 0 1-1.3 0l-7.9-4.6c-.2-.1-.3-.15-.3-.35zm81.5 47.1v1.5c0 .2.1.3.3.4l7.9 4.6a1.48 1.48 0 0 0 1.3 0l7.9-4.6a1.38 1.38 0 0 0 .3-.4v-1.5c0 .2-.1.3-.3.4l-7.9 4.6a1.48 1.48 0 0 1-1.3 0l-7.9-4.6a.54.54 0 0 1-.3-.35zm29 7l-7.9 4.6a1.48 1.48 0 0 1-1.3 0l-7.9-4.6a1.38 1.38 0 0 1-.3-.4v1.5c0 .2.1.3.3.4l7.9 4.6a1.48 1.48 0 0 0 1.3 0l7.9-4.6a1.38 1.38 0 0 0 .3-.4v-1.5c0 .25-.1.45-.3.45zm-52.3-20.5v1.5c0 .2.1.3.3.4l7.9 4.6a1.48 1.48 0 0 0 1.3 0l7.9-4.6a1.38 1.38 0 0 0 .3-.4v-1.5c0 .2-.1.3-.3.4l-7.9 4.6a1.48 1.48 0 0 1-1.3 0l-7.9-4.6c-.2-.05-.3-.15-.3-.35zm11.6 6.7v1.5c0 .2.1.3.3.4l7.9 4.6a1.48 1.48 0 0 0 1.3 0l7.9-4.6a1.38 1.38 0 0 0 .3-.4V189c0 .2-.1.3-.3.4l-7.9 4.6a1.48 1.48 0 0 1-1.3 0l-7.9-4.6c-.2-.1-.3-.2-.3-.4zM219 168.95v1.5c0 .2.1.3.3.4l7.9 4.6a1.48 1.48 0 0 0 1.3 0l7.9-4.6a1.38 1.38 0 0 0 .3-.4v-1.5c0 .2-.1.3-.3.4l-7.9 4.6a1.48 1.48 0 0 1-1.3 0l-7.9-4.6a.54.54 0 0 1-.3-.4zm-5.9.3l-7.9 4.6a1.48 1.48 0 0 1-1.3 0l-7.9-4.6a1.38 1.38 0 0 1-.3-.4v1.5c0 .2.1.3.3.4l7.9 4.6a1.48 1.48 0 0 0 1.3 0l7.9-4.6a1.38 1.38 0 0 0 .3-.4v-1.5c-.13.15-.23.4-.33.4zm-5.8-7.1v1.5c0 .2.1.3.3.4l7.9 4.6a1.48 1.48 0 0 0 1.3 0l7.9-4.6a1.38 1.38 0 0 0 .3-.4v-1.5c0 .2-.1.3-.3.4l-7.9 4.6a1.48 1.48 0 0 1-1.3 0l-7.9-4.6a1.38 1.38 0 0 1-.33-.4zm23.3 13.5v1.5c0 .2.1.3.3.4l7.9 4.6a1.48 1.48 0 0 0 1.3 0l7.9-4.6a1.38 1.38 0 0 0 .3-.4v-1.5c0 .2-.1.3-.3.4l-7.9 4.6a1.48 1.48 0 0 1-1.3 0l-7.9-4.6a.54.54 0 0 1-.33-.4zm-34.9-20.2v1.5c0 .2.1.3.3.4l7.9 4.6a1.48 1.48 0 0 0 1.3 0l7.9-4.6a1.38 1.38 0 0 0 .3-.4v-1.5c0 .2-.1.3-.3.4l-7.9 4.6a1.48 1.48 0 0 1-1.3 0l-7.9-4.6c-.23-.1-.33-.2-.33-.4zm-11.4 22l7.9 4.6a1.48 1.48 0 0 0 1.3 0l7.9-4.6a1.38 1.38 0 0 0 .3-.4v-1.5c0 .2-.1.3-.3.4l-7.9 4.6a1.48 1.48 0 0 1-1.3 0l-7.9-4.6a1.38 1.38 0 0 1-.3-.4V177a1.38 1.38 0 0 0 .27.45zm23.3 26.9l7.9 4.6a1.48 1.48 0 0 0 1.3 0l7.9-4.6a1.38 1.38 0 0 0 .3-.4v-1.5c0 .2-.1.3-.3.4l-7.9 4.6a1.48 1.48 0 0 1-1.3 0l-7.9-4.6a1.38 1.38 0 0 1-.3-.4v1.5a1.38 1.38 0 0 0 .27.4zm11.6 6.7l7.9 4.6a1.48 1.48 0 0 0 1.3 0l7.9-4.6a1.38 1.38 0 0 0 .3-.4v-1.5c0 .2-.1.3-.3.4l-7.9 4.6a1.48 1.48 0 0 1-1.3 0l-7.9-4.6a1.38 1.38 0 0 1-.3-.4v1.5a1.38 1.38 0 0 0 .27.35z"/>
  <path fill="#44484b" d="M230.87 216.35l7.9 4.6a1.48 1.48 0 0 0 1.3 0l7.9-4.6a.37.37 0 0 0 .2-.5.22.22 0 0 0-.2-.2l-7.9-4.6a1.48 1.48 0 0 0-1.3 0l-7.9 4.6a.37.37 0 0 0-.2.5c0 .1.1.1.2.2z"/>
  <path fill="#272726" d="M230.87 217.75l7.9 4.6a1.48 1.48 0 0 0 1.3 0l7.9-4.6a1.38 1.38 0 0 0 .3-.4v-1.5c0 .2-.1.3-.3.4l-7.9 4.6a1.48 1.48 0 0 1-1.3 0l-7.9-4.6a1.38 1.38 0 0 1-.3-.4v1.5c0 .2.1.3.3.4z"/>
  <path fill="#44484b" d="M306.17 208.85l-7.9-4.6a1.48 1.48 0 0 0-1.3 0l-7.9 4.6a.37.37 0 0 0-.2.5.22.22 0 0 0 .2.2l7.9 4.6a1.48 1.48 0 0 0 1.3 0l7.9-4.6c.2 0 .3-.3.3-.5a1.24 1.24 0 0 0-.3-.2zm-11.6 6.8l-7.9-4.6a1.48 1.48 0 0 0-1.3 0l-7.9 4.6a.37.37 0 0 0-.2.5.22.22 0 0 0 .2.2l7.9 4.6a1.48 1.48 0 0 0 1.3 0l7.9-4.6a.37.37 0 0 0 .2-.5.22.22 0 0 0-.2-.2zm-11.7 6.7l-7.9-4.6a1.48 1.48 0 0 0-1.3 0l-7.9 4.6a.37.37 0 0 0-.2.5.22.22 0 0 0 .2.2l7.9 4.6a1.48 1.48 0 0 0 1.3 0l7.9-4.6a.37.37 0 0 0 .2-.5c.1-.1 0-.2-.2-.2z"/>
  <path fill="#272726" d="M282.87 223l-7.9 4.6a1.48 1.48 0 0 1-1.3 0l-7.9-4.6a1.38 1.38 0 0 1-.3-.4v1.5c0 .2.1.3.3.4l7.9 4.6a1.48 1.48 0 0 0 1.3 0l7.9-4.6a1.38 1.38 0 0 0 .3-.4v-1.5c0 .25-.1.35-.3.4zm11.7-6.7l-7.9 4.6a1.48 1.48 0 0 1-1.3 0l-7.9-4.6a1.38 1.38 0 0 1-.3-.4v1.5c0 .2.1.3.3.4l7.9 4.6a1.48 1.48 0 0 0 1.3 0l7.9-4.6a1.38 1.38 0 0 0 .3-.4v-1.5c0 .25-.1.35-.3.45zm11.6-6.7l-7.9 4.6a1.48 1.48 0 0 1-1.3 0l-7.9-4.6a1.38 1.38 0 0 1-.3-.4v1.5c0 .2.1.3.3.4l7.9 4.6a1.48 1.48 0 0 0 1.3 0l7.9-4.6a1.38 1.38 0 0 0 .3-.4v-1.5c0 .25-.1.35-.3.45z"/>
  <path fill="#44484b" d="M248.07 228.95l-7.9-4.6a1.48 1.48 0 0 0-1.3 0l-3.2 1.9a.37.37 0 0 0-.2.5.22.22 0 0 0 .2.2l7.9 4.6a1.48 1.48 0 0 0 1.3 0l3.2-1.9a.37.37 0 0 0 .2-.5.22.22 0 0 0-.2-.2z"/>
  <path fill="#272726" d="M248.07 229.65l-3.2 1.9a1.48 1.48 0 0 1-1.3 0l-7.9-4.6a1.38 1.38 0 0 1-.3-.4V228c0 .2.1.3.3.4l7.9 4.6a1.48 1.48 0 0 0 1.3 0l3.2-1.9a1.38 1.38 0 0 0 .3-.4v-1.5a1.38 1.38 0 0 1-.3.45z"/>
  <path fill="#44484b" d="M243.47 231.65l-7.9-4.6a1.48 1.48 0 0 0-1.3 0l-3.4 2a.37.37 0 0 0-.2.5.22.22 0 0 0 .2.2l7.9 4.6a1.48 1.48 0 0 0 1.3 0l3.4-2a.37.37 0 0 0 .2-.5c0-.1 0-.2-.2-.2zm-11.6-6.7l-7.9-4.6a1.48 1.48 0 0 0-1.3 0l-3.4 2a.37.37 0 0 0-.2.5.22.22 0 0 0 .2.2l7.9 4.6a1.48 1.48 0 0 0 1.3 0l3.4-2a.37.37 0 0 0 .2-.5.22.22 0 0 0-.2-.2z"/>
  <path fill="#272726" d="M232.07 226.75v-1.5c0 .2-.1.3-.3.4l-3.4 2a1.48 1.48 0 0 1-1.3 0l-7.9-4.6a1.38 1.38 0 0 1-.3-.4v1.5c0 .2.1.3.3.4l7.9 4.6a1.48 1.48 0 0 0 1.3 0l3.4-2a.54.54 0 0 0 .3-.4zm11.4 5.6l-3.4 2a1.48 1.48 0 0 1-1.3 0l-7.9-4.6a1.38 1.38 0 0 1-.3-.4v1.5c0 .2.1.3.3.4l7.9 4.6a1.48 1.48 0 0 0 1.3 0l3.4-2a1.38 1.38 0 0 0 .3-.4V232a.32.32 0 0 1-.3.35z"/>
  <path fill="#44484b" d="M255.17 238.35l-7.9-4.6a1.48 1.48 0 0 0-1.3 0l-3.4 2a.37.37 0 0 0-.2.5.22.22 0 0 0 .2.2l7.9 4.6a1.48 1.48 0 0 0 1.3 0l3.4-2a.37.37 0 0 0 .2-.5.22.22 0 0 0-.2-.2z"/>
  <path fill="#272726" d="M255.17 239l-3.4 2a1.48 1.48 0 0 1-1.3 0l-7.9-4.6a1.38 1.38 0 0 1-.3-.4v1.5c0 .2.1.3.3.4l7.9 4.6a1.48 1.48 0 0 0 1.3 0l3.4-2a1.38 1.38 0 0 0 .3-.4v-1.5a.45.45 0 0 1-.3.4zm-70.9-48.2l7.9 4.6a1.48 1.48 0 0 0 1.3 0l7.9-4.6a1.38 1.38 0 0 0 .3-.4V189c0 .2-.1.3-.3.4l-7.9 4.6a1.48 1.48 0 0 1-1.3 0l-7.9-4.6a1.38 1.38 0 0 1-.3-.4v1.5c.1.15.2.35.3.35zm11.7 6.8l7.9 4.6a1.48 1.48 0 0 0 1.3 0l7.9-4.6a1.38 1.38 0 0 0 .3-.4v-1.5c0 .2-.1.3-.3.4l-7.9 4.6a1.48 1.48 0 0 1-1.3 0l-7.9-4.6a1.38 1.38 0 0 1-.3-.4v1.5c0 .25.1.35.33.45zm-35.2-22v1.5c0 .2.1.3.3.4l7.9 4.6a1.48 1.48 0 0 0 1.3 0l7.9-4.6a1.38 1.38 0 0 0 .3-.4v-1.5c0 .2-.1.3-.3.4l-7.9 4.6a1.48 1.48 0 0 1-1.3 0l-7.9-4.6a.54.54 0 0 1-.3-.4z"/>
  <path fill="#44484b" d="M149.37 169.25l7.9 4.6a1.48 1.48 0 0 0 1.3 0l7.9-4.6a.37.37 0 0 0 .2-.5.22.22 0 0 0-.2-.2l-7.9-4.6a1.48 1.48 0 0 0-1.3 0l-7.9 4.6a.37.37 0 0 0-.2.5.22.22 0 0 0 .2.2z"/>
  <path fill="#272726" d="M149.07 168.95v1.5c0 .2.1.3.3.4l7.9 4.6a1.48 1.48 0 0 0 1.3 0l7.9-4.6a1.38 1.38 0 0 0 .3-.4v-1.5c0 .2-.1.3-.3.4l-7.9 4.6a1.48 1.48 0 0 1-1.3 0l-7.9-4.6a.54.54 0 0 1-.3-.4zm23.6 15.2l7.9 4.6a1.48 1.48 0 0 0 1.3 0l7.9-4.6a1.38 1.38 0 0 0 .3-.4v-1.5c0 .2-.1.3-.3.4l-7.9 4.6a1.48 1.48 0 0 1-1.3 0l-7.9-4.6a1.38 1.38 0 0 1-.3-.4v1.5c0 .2.1.4.3.4zm98.6 45.6l-7.9 4.6a1.48 1.48 0 0 1-1.3 0L242.57 223a1.38 1.38 0 0 1-.3-.4v1.5c0 .2.1.3.3.4l19.6 11.3a1.48 1.48 0 0 0 1.3 0l7.9-4.6a1.38 1.38 0 0 0 .3-.4v-1.5c-.1.2-.2.4-.4.4z"/>
  <path id="svg3-screen" fill="#292b2c" d="M173.17 118V10.75l146.4 84.5v107.4z"/>
  <image width="157" height="154" transform="matrix(.93 0 0 .94 174.12 57.89)" xlink:href="http://m-mba.ru/upload/8B74D890.png" style="isolation:isolate"/>
  <path fill="#606368" d="M174.47 117.35l-1.3.7 146.4 84.6V201z"/>
  <path fill="#313236" d="M174.47 117.35V11.45l-1.3-.7V118z"/>
  <path fill="#c6ffbc" d="M247.27 49.85c0 .6-.4.8-1 .5a2 2 0 0 1-1-1.6c0-.6.4-.8 1-.5a2 2 0 0 1 1 1.6z"/>
  <path fill="#44484b" d="M291.77 235.25a1.86 1.86 0 0 1-.9 1.5l-12.6 7.3a.55.55 0 0 1-.9-.5 1.86 1.86 0 0 1 .9-1.5l12.6-7.3a.55.55 0 0 1 .9.5z"/>
<g fill-opacity="0.3" >
  <path fill="#9b97db" d="M322.47 43.45l45.3 26.2c3.7 2.1 3 6-1.5 8.6l-57 32.9-58.8-33.9 57-32.9c4.6-2.7 11.3-3 15-.9z"/>
  <path fill="#2a2a2c" d="M260.07 82.75L325.17 45 343 55.25l-65.2 37.7z"/>
  <path fill="#7b7b7b" d="M292.77 90.35L345 60.15l4.6 2.7L297.47 93z"/>
  <path fill="#d8dbcc" d="M345 70.95l6.6-3.8c2.4-1.4 6.7-1 9.4 1s3.1 4.6.6 6l-6.6 3.8c-2.4 1.4-6.7 1-9.4-1s-3.13-4.6-.6-6z"/>
</g>
  <path fill="#fff" d="M278.27 244.45a.9.9 0 0 1-.9-.9v-.1l.2.2c0 .2.2.3.3.2s.6-.3.7-.4l11.3-6.6c.4-.1.7-.3 1.1-.4a1.27 1.27 0 0 0 .7-.9v-.1a2.14 2.14 0 0 1-1.1 1.9l-11.8 6.9a.76.76 0 0 1-.5.2z"/>
  <path fill="#dedede" d="M274.37 151.45l-79-45.5v-17.2l79 45.5z"/>
  <path fill="#292b2c" d="M269.77 139.45v3.9L200 103.25"/>
  <g>
    <path fill="#7c7ba5" d="M195.11 171.64l-45.3-26.2a4.09 4.09 0 0 1-2.4-3.5v-2.7s2.6-1.8 3.8-2.5l57-32.9 58.7 31.3 2.3 1.3-59.21 34.2c-4.5 2.7-11.2 3.1-14.9 1z"/>
    <path fill="#9b97db" d="M195.11 169l-45.3-26.2c-3.7-2.1-3-6 1.5-8.6l56.94-32.85 58.86 33.85-57 32.9c-4.6 2.74-11.3 3.04-15 .9z"/>
    <path fill="#4c4d50" d="M236 117.34l-65.2 37.6-17.7-10.2 65.1-37.6z"/>
    <path fill="none" stroke="#cfcff8" stroke-width=".5" stroke-miterlimit="10" d="M267 135.24L210.11 168c-4.5 2.6-11.2 3-14.9.8l-45.1-26.1c-3.7-2.1-3-6 1.5-8.6"/>
    <path fill="none" stroke="#88888f" stroke-width=".5" stroke-miterlimit="10" d="M170.91 154.84l-17.6-10.1"/>
    <path fill="#dedede" d="M237.31 127.74l-52.1 30.2-4.7-2.8 52.2-30.1z"/>
    <path fill="#8c8c8c" d="M228.11 130.84l-.8-1.9.4-.2 1.5 1.4.2-.1.4.4-.2.1.7.6-.3.2-.8-.7-.9.5-.2-.3zm.8-.6l-.8-.7-.2-.2a.37.37 0 0 1 .1.3l.4 1 .5-.4zm1.9-.1l.4-.2-1.4-1.3-.2-.2c0 .1 0 .1.1.2v.3l-.5-.1-.1-.8.3-.2 2.1 2 .4-.2.4.4-1.1.7-.4-.6zm1.7-1.1a.37.37 0 0 0 .3-.1c.3-.2.1-.6-.2-1a.4.4 0 0 1-.2.4 1.33 1.33 0 0 1-1.4-.4c-.4-.4-.6-1-.2-1.1a1.91 1.91 0 0 1 1.9.7c.8.7 1.1 1.5.6 1.8a.75.75 0 0 1-.5.1l-.3-.4zm-.3-1.4c-.3-.3-.8-.5-1-.4s-.1.3.1.6a.55.55 0 0 0 .8.2c.2-.1.3-.2.1-.4z"/>
    <path fill="#d8dbcc" d="M213.71 160.14l-6.6 3.8c-2.4 1.4-6.7 1-9.4-1s-3.1-4.6-.6-6l6.6-3.8c2.4-1.4 6.7-1 9.4 1s3 4.6.6 6z"/>
    <path fill="#fff" d="M203.51 164.84a10.5 10.5 0 0 1-5.9-1.8c-1.5-1.1-2.4-2.4-2.3-3.7a3 3 0 0 1 1.7-2.5l6.4-3.7-6.2 4.1a2.74 2.74 0 0 0-1.5 2.1 4.3 4.3 0 0 0 2.1 3.3c2.6 1.8 6.6 2.2 8.9 1l6.6-3.3-6.4 3.8a7.67 7.67 0 0 1-3.4.7z"/>
  </g>
  <path fill="#2c2c2c" d="M215 77.35l-17.8 10.3 79 45.5v17.2L294 140v-17.1z"/>
  <path fill="#7776b2" d="M214.44 109.32l-10.24-5.77 1.61-.91 10.12 5.83m47.16 28.76l-31-17.62 1.43-.82 31 17.64"/>
  <path fill="#333336" d="M232.1 119.6l-17.66-10.28 1.51-.88 17.77 10.22"/>
  <path fill="#7776b2" d="M266.94 137.77l-3.45 2v-2.19l1.36-.83z"/>
  <g fill-opacity="0.3">
  <path fill="#d6d6d6" d="M294 140.15l17.8-10.3v-17.2l-17.8 10.3z"/>
  <path fill="#ebebeb" d="M215 77.45l17.8-10.3 79 45.5-17.8 10.3z"/></g>
  <path fill="#d6d6d6" d="M274.37 151.45l17.8-10.3v-17.2l-17.8 10.3z"/>
  <path fill="#ebebeb" d="M195.37 88.75l17.8-10.3 79 45.5-17.8 10.3z"/>
  <path fill="#292b2c" d="M269.77 139.45v3.9l-6.28-3.61 3.35-1.91 2.93 1.62m-69.8-40.22v4.02l2.67 1.55 3.47-2-6.14-3.57"/>
  <path fill="#dedede" d="M195.37 88.75v8.58l78.91 44.72.09-7.8-79-45.5"/>
  <path fill="#fff" d="M267.8 46.92a4.56 4.56 0 0 0-.88 8.28l57.66 33.29a7 7 0 0 1 3.32 6.05v5.76a1.27 1.27 0 0 0 1.72 1.19l75.66-28.62a1.27 1.27 0 0 0 .82-1.19V3.77a1.27 1.27 0 0 0-1.66-1.21z"/>
  <path fill="#5f636b" d="M324.67 88.55L172.07.45a2.13 2.13 0 0 0-2.3-.2l-2 1.2a2.38 2.38 0 0 1 2.3.2l152.6 88.1a7 7 0 0 1 3.2 5.6v118.2a2.28 2.28 0 0 1-1 2.1l2-1.2a2.51 2.51 0 0 0 1-2.1V94.15a7.12 7.12 0 0 0-3.2-5.6z"/>
  <path fill="none" stroke="#8e9196" stroke-width=".6" stroke-miterlimit="10" d="M325.57 103.09l.09-7.44c0-4.42-2.95-5.59-4.26-6.39L274.71 62.4"/>
  <path fill="#45474d" d="M325.27 106.35h-5.7v-11.1L260.7 61.17l3.76-4.33 58 33.37a5.93 5.93 0 0 1 2.92 5.36z"/>
</svg>
