<svg xmlns="http://www.w3.org/2000/svg" width="408px" height="344px" viewBox="0 0 407.86 343.49">
  <defs>
    <mask id="a" width="55.31" height="35.41" x="85.63" y="165.12" maskUnits="userSpaceOnUse">
      <path fill="#fff" d="M140.94 173.67a11.55 11.55 0 0 1-.12 1.61c-1.4 9.74-14.86 17-30.07 16.12s-26.4-9.41-25-19.15a13.74 13.74 0 0 1 3.48-7.13h48.27a13 13 0 0 1 3.44 8.49v.06z"/>
    </mask>
    <mask id="b" width="55.31" height="35.41" x="85.08" y="165.18" maskUnits="userSpaceOnUse">
      <path fill="#fff" d="M140.39 177.2c-2.76 8.76-15.44 15-29.63 14.21-15.21-.84-26.4-9.41-25-19.15a13.71 13.71 0 0 1 3.43-7.07h48.38a14.28 14.28 0 0 1 2.83 4.94v7.08z"/>
    </mask>
    <mask id="c" width="55.31" height="35.41" x="87.74" y="175.11" maskUnits="userSpaceOnUse">
      <path fill="#fff" d="M87.74 180.66c3.81 5.85 12.44 10.17 23 10.75 15.21.84 28.67-6.38 30.07-16.12v-.17H87.74z"/>
    </mask>
    <mask id="d" width="55.31" height="35.41" x="87.67" y="172.25" maskUnits="userSpaceOnUse">
      <path fill="#fff" d="M87.67 180.54c3.77 5.91 12.45 10.28 23.09 10.87 15.21.84 28.67-6.38 30.07-16.12a11.44 11.44 0 0 0 0-3H87.67v8.29z"/>
    </mask>
  </defs>
  <path fill="#c25639" d="M194.92 338.9L7.92 231c-5.37-3.11-8-7.3-7.92-11.76 0-3.1.46-7 .46-7s8.57-7.46 12.42-9.67l150.67-86.19c15-8.64 37.09-9.89 49.34-2.8l187 107.9a83.16 83.16 0 0 1 7.91 5.86s.13 4.19 0 6.54c-.37 5.53-4.74 11.4-12.85 16.08L244.26 336.1c-15 8.64-37.09 9.89-49.34 2.8"/>
  <path fill="#ff6134" d="M194.92 333.37l-187-107.9c-12.26-7.09-10-19.83 5-28.47l150.67-86.19c15-8.64 37.09-9.89 49.34-2.8l187 107.9c12.26 7.09 10 19.83-5 28.47l-150.67 86.19c-15 8.64-37.09 9.89-49.34 2.8"/>
  <path fill="none" stroke="#ffbc9d" stroke-width=".75" d="M398 215.32c12.56 6.19 12.8 19.39-3.57 29.23l-149.7 85.64c-14.87 8.56-37.37 9.91-49.52 2.89L9.5 225.92c-12-6.79-10.93-16.08-3.83-23.1"/>
  <path fill="#cd5d4a" d="M282.29 273.24L105.05 170.88v-5.44l79.9-41.57 177.23 96.91v5.44l-79.89 47.02"/>
  <path fill="#cccccb" d="M282.29 271.68L105.05 169.33v-5.45l79.9-41.57 177.23 96.91v5.44l-79.89 47.02"/>
  <path fill="none" stroke="#fff" d="M282.28 266.24l-.06 5.41"/>
  <path fill="#ececec" d="M282.29 266.24L105.05 163.88l79.9-47.01 177.23 102.35-79.89 47.02" class=""/>
  <path fill="none" stroke="#fff" d="M362.18 219.22l-79.89 47.02-177.24-102.36"/>



















  <path fill="#cd5d4a" d="M147.07 232.23c-1.71 11.9-18.15 20.72-36.73 19.69-17.54-1-30.71-10.36-30.68-21.43 0-.65-.12-56-.12-56l67.54.6s-.16 43.9 0 54.86a14.31 14.31 0 0 1 0 2.25"/>
  <path fill="#d7d7d7" d="M147.07 231.18c-1.71 11.9-18.15 20.72-36.73 19.69-17.54-1-30.71-10.36-30.68-21.43 0-.65-.12-56-.12-56l67.54.6s-.16 43.9 0 54.86a14.31 14.31 0 0 1 0 2.25"/>
  <path fill="#c4c4c4" d="M113.31 221.25c0 7.38-5.49 12.46-12.2 11.36s-11.59-7.76-11.56-15.14 5-12.68 11.67-11.57 12.12 8 12.09 15.36"/>
  <path fill="#f4f4f4" d="M146.92 175.62c-1.71 11.9-18.15 20.72-36.73 19.69s-32.25-11.5-30.54-23.4 18.15-20.72 36.73-19.69 32.25 11.5 30.54 23.4"/>
  <path fill="#fff" d="M113.1 195.58c-1 0-1.93 0-2.9-.08-11.47-.63-21.52-4.91-26.88-11.46a15.45 15.45 0 0 1-3.74-12.16 14.88 14.88 0 0 0 .23 3.19 21.13 21.13 0 0 0 1.31 3.23 16.85 16.85 0 0 0 2.94 5.13c5.23 6.38 14.93 10.5 26.19 11.12 16.12.88 30.46-5.63 34.7-15.23 0 0 .63-.94 1-1.69l1-2.07c-1.63 11.34-16.53 20-33.89 20"/>
  <path fill="#c4c4c4" d="M140.83 175.28c-1.4 9.74-14.86 17-30.07 16.13s-26.4-9.41-25-19.15 14.86-17 30.07-16.12 26.4 9.41 25 19.15"/>

  <path fill="#ececec" d="M289.78 254.62l-153.45-99.29 4.8-2.58 33.86 19.64 7.69-4.4-.01 9.17 29.79 16.96 8.98-5.04.08 10.29 29.66 17.2 11.39-6.48-.01 13.16 29.69 17.14 29.7-17.07 11.05 4.93-43.22 26.37"/>
  <g mask="url(#a)">
    <path fill="#404649" d="M140.83 184.34c-1.4 9.74-14.86 17-30.07 16.12s-26.41-9.41-25-19.15 14.86-17 30.07-16.12 26.4 9.41 25 19.16"/>
  </g>
  <g mask="url(#b)">
    <path fill="#392118" d="M140.27 184.4c-1.4 9.74-14.86 17-30.07 16.12s-26.41-9.41-25-19.15 14.86-17 30.07-16.12 26.4 9.41 25 19.16"/>
  </g>
  <g mask="url(#c)">
    <path fill="#4e5456" d="M142.94 194.33c-1.4 9.74-14.86 17-30.07 16.13s-26.41-9.41-25-19.15 14.86-17 30.07-16.13 26.4 9.41 25 19.15"/>
  </g>
  <g mask="url(#d)">
    <path fill="#43261b" d="M142.86 191.47c-1.4 9.74-14.86 17-30.07 16.13s-26.41-9.41-25-19.16 14.86-17 30.07-16.12 26.4 9.41 25 19.16"/>
  </g>
  <path fill="#e9e9e9" d="M136.72 227.78a1 1 0 0 1 1.17-.55c6.75 2.06 11.21-3.43 11.22-10.54s-5.5-12-11.34-14.2a2.08 2.08 0 0 1-1.19-1.11 8.87 8.87 0 0 1-.63-3.51 11.82 11.82 0 0 1 .22-2.28 2.83 2.83 0 0 1 3.52-2.16c12.67 3.53 18.6 12.64 18.6 24.9 0 11.11-8.49 20.45-18.94 18.2A4.27 4.27 0 0 1 136 233a9 9 0 0 1-.09-1.29 10.64 10.64 0 0 1 .77-3.9"/>
  <path d="M210.49 283.34c-1.45 0-2.63-.69-2.63-1.53v-3h5.27v3c0 .85-1.18 1.53-2.63 1.53"/>
  <path fill="#606060" d="M210.49 280.3c-1.45 0-2.63-.69-2.63-1.53s1.18-1.53 2.63-1.53 2.63.69 2.63 1.53-1.18 1.53-2.63 1.53"/>
  <path fill="#768999" d="M210.49 279.57c-.46 0-1.2-.15-1.37-.66L205 266.68l2.73-.33 4.08 12.24c.23.7-.88 1-1.36 1"/>
  <path fill="#dfdfdf" d="M206.38 289.38c-.77 0-1.39-.36-1.39-.81v-17.43h2.79v17.43c0 .45-.62.81-1.4.81"/>
  <path d="M189.91 295.36c-1.45 0-2.63-.69-2.63-1.53v-3h5.27v3c0 .85-1.18 1.53-2.63 1.53"/>
  <path fill="#606060" d="M189.91 292.32c-1.45 0-2.63-.69-2.63-1.53s1.18-1.53 2.63-1.53 2.63.69 2.63 1.53-1.18 1.53-2.63 1.53"/>
  <path d="M218.39 300c-1.46 0-2.63-.69-2.63-1.53v-3H221v3c0 .85-1.18 1.53-2.63 1.53"/>
  <path fill="#606060" d="M218.39 296.94c-1.46 0-2.63-.69-2.63-1.53s1.18-1.53 2.63-1.53 2.63.69 2.63 1.53-1.18 1.53-2.63 1.53"/>
  <path fill="#dfdfdf" d="M205 266.35l2.59.6-16.36 24.13a1.59 1.59 0 0 1-1.3.52c-.77 0-1.39-.36-1.39-.81a.53.53 0 0 1 .1-.31z"/>
  <path fill="#c6c6c6" d="M217 295.6a1.45 1.45 0 0 0 1.36.62c.77 0 1.39-.36 1.39-.81a.49.49 0 0 0 0-.19l-12-28.86-2.71.38z"/>
  <path d="M206.38 271.41c-2.41 0-4.36-1.14-4.36-2.54v-2.52h8.73v2.52c0 1.4-2 2.54-4.36 2.54"/>
  <path fill="#606060" d="M206.38 268.89c-2.41 0-4.36-1.14-4.36-2.54s2-2.54 4.36-2.54 4.36 1.14 4.36 2.54-2 2.54-4.36 2.54"/>
  <path fill="#dfdfdf" d="M206.38 267.16c-.77 0-1.39-.36-1.39-.81V247.4h2.79v18.95c0 .45-.62.81-1.4.81"/>
  <path fill="#5d636c" d="M230.07 273.25l2.64-42.57-50.03-25.84v41.04l47.39 27.37"/>
  <path fill="#818791" d="M230.07 232.2l-47.39-27.36 2.64-1.52 47.39 27.36-2.64 1.52"/>
  <path fill="#42454c" d="M230.07 273.25V232.2l2.64-1.52v41.04l-2.64 1.53"/>
  <path fill="#fff" d="M227.44 233.72v33.44l-40.81-23.56v-33.44l40.81 23.56"/>
  <path fill="#42454c" d="M186.63 210.16v33.44l-1.31.76V209.4l1.31.76"/>
  <path fill="#818791" d="M185.32 244.36l42.12 24.33v-1.53l-40.81-23.56-1.31.76"/>
  <path fill="none" stroke="#bababa" stroke-width=".5" d="M232.71 230.68l-2.64 1.52-47.39-27.36"/>
  <path fill="none" stroke="#cecece" stroke-width=".5" d="M227.44 268.69l-42.12-24.32"/>
  <path fill="none" stroke="#b5b5b5" stroke-width=".25" d="M188.52 211.25v33.44m3.41-31.45v33.44m3.42-31.46v33.44m3.41-31.45v33.44m3.42-31.46v33.44m3.41-31.45v33.44m3.41-31.46v33.44m3.42-31.45v33.44m3.41-31.46v33.44m3.42-31.45v33.44m3.41-31.46v33.44m3.42-31.45v33.44"/>
  <path fill="#6b5cc3" d="M193.81 240.86l-.62-.99 7.92-6.15.62.99-7.92 6.15"/>
  <path fill="#6b5cc3" d="M210.96 243.65l-9.65-9.05.23-.78 9.65 9.05-.23.78"/>
  <path fill="#6b5cc3" d="M211.36 243.76l-.57-1.01 8.75-4.9.58 1.02-8.76 4.89"/>
  <path fill="#fff" d="M194.78 241.14c0 .82-.59 1.14-1.3.71a2.89 2.89 0 0 1-1.26-2.26c0-.82.59-1.14 1.3-.71a2.89 2.89 0 0 1 1.26 2.26"/>
  <path fill="#6b5cc3" d="M193.51 239.36c-.48-.29-.88-.08-.88.48a2 2 0 0 0 .86 1.54c.48.29.88.07.88-.48a2 2 0 0 0-.86-1.54m0 3a3.83 3.83 0 0 1-1.66-3c0-1.08.78-1.5 1.71-.93a3.82 3.82 0 0 1 1.66 3c0 1.08-.78 1.5-1.71.93"/>
  <path fill="#fff" d="M202.62 235c0 .82-.59 1.14-1.3.71a2.89 2.89 0 0 1-1.26-2.26c0-.82.59-1.14 1.3-.71a2.89 2.89 0 0 1 1.26 2.26"/>
  <path fill="#6b5cc3" d="M201.35 233.22c-.48-.29-.88-.07-.88.48a2 2 0 0 0 .86 1.54c.48.29.88.08.88-.48a2 2 0 0 0-.86-1.54m0 3a3.82 3.82 0 0 1-1.66-3c0-1.08.78-1.5 1.71-.93a3.82 3.82 0 0 1 1.66 3c0 1.08-.78 1.5-1.71.93"/>
  <path fill="#fff" d="M212.33 244c0 .82-.59 1.14-1.3.71a2.89 2.89 0 0 1-1.26-2.26c0-.82.59-1.14 1.3-.71a2.89 2.89 0 0 1 1.26 2.26"/>
  <path fill="#6b5cc3" d="M211.06 242.23c-.48-.29-.88-.07-.88.48a2 2 0 0 0 .86 1.54c.48.29.88.08.88-.48a2 2 0 0 0-.86-1.54m0 3a3.82 3.82 0 0 1-1.66-3c0-1.08.78-1.5 1.71-.93a3.82 3.82 0 0 1 1.66 3c0 1.08-.78 1.5-1.71.93"/>
  <path fill="#fff" d="M221.41 239.05c0 .82-.59 1.14-1.3.71a2.89 2.89 0 0 1-1.26-2.26c0-.82.59-1.14 1.3-.71a2.89 2.89 0 0 1 1.26 2.26"/>
  <path fill="#6b5cc3" d="M220.15 237.26c-.48-.29-.88-.07-.88.48a2 2 0 0 0 .86 1.54c.48.29.88.07.88-.48a2 2 0 0 0-.86-1.54m0 3a3.82 3.82 0 0 1-1.66-3c0-1.08.78-1.5 1.71-.93a3.82 3.82 0 0 1 1.66 3c0 1.08-.78 1.5-1.71.93"/>

</svg>
