<?xml version="1.0" encoding="utf-8"?>
<!-- Generator: Adobe Illustrator 21.0.0, SVG Export Plug-In . SVG Version: 6.00 Build 0)  -->
<svg version="1.1" id="Layer_1" xmlns="http://www.w3.org/2000/svg" xmlns:xlink="http://www.w3.org/1999/xlink" x="0px" y="0px"
	width="145px" height="134px"
	 viewBox="0 0 117 109.7" style="enable-background:new 0 0 117 109.7;" xml:space="preserve">
<style type="text/css">
	.st0{fill:#FFFFFF;stroke:#6B738E;stroke-width:1.2;stroke-miterlimit:10;}
	.st1{fill:#F3F3FF;stroke:#6B738E;stroke-width:1.2;stroke-miterlimit:10;}
	.st2{fill:none;}
	.st3{fill:#DBDCDD;}
	.st4{fill:none;stroke:#6B738E;stroke-width:1.2;stroke-miterlimit:10;}
	.st5{fill:none;stroke:#6B738E;stroke-width:1.2;stroke-linejoin:round;}
	.st6{fill:#6B738E;}
	.st7{fill:#6B738E;stroke:#6B738E;stroke-width:1.2;stroke-miterlimit:10;}
	.st8{fill:none;stroke:#FFFFFF;stroke-width:0.75;stroke-miterlimit:10;}
	.st9{fill:none;stroke:#FFFFFF;stroke-width:0.5;stroke-miterlimit:10;}
	.st10{fill:#FFC688;}
	.st11{fill:none;stroke:#6B738E;stroke-width:2;stroke-miterlimit:10;}
	.st12{fill:#CDD1D3;stroke:#6B738E;stroke-width:1.2;stroke-miterlimit:10;}
</style>
<title>viz</title>
<path class="st0" d="M0.6,71.3V31c0-2,2-3.6,4.5-3.6h106.8c2.5,0,4.5,1.6,4.5,3.6v74c0,2-2,3.6-4.5,3.6H5.1c-2.5,0-4.5-1.6-4.5-3.6
	C0.6,105,0.6,71.3,0.6,71.3z"/>
<path class="st0" d="M4.2,34.5c0-1.8,1.9-3.3,4.1-3.3h100.3c2.3,0,4.1,1.5,4.1,3.3v67.1c0,1.8-1.9,3.3-4.1,3.3H8.4
	c-2.3,0-4.1-1.5-4.1-3.3L4.2,34.5z"/>
<path class="st0" d="M50.8,67.4l0.6,0.3c1.4,0.3,2.4,1.7,2.1,3.1c0,0-0.3,3.2-0.4,3.9c-0.1,0.7-1.1,2.1-2,2.1h-0.5"/>
<path class="st0" d="M21.7,67.4l-0.6,0.3c-1.4,0.3-2.4,1.7-2.1,3.1c0,0,0.3,3.2,0.4,3.9c0.1,0.7,1.1,2.1,2.1,2.1h0.3"/>
<path class="st1" d="M16.3,101.7v-1c0-3.9,3.2-7,7.1-7.1h25.9c3.9,0,7.1,3.2,7.1,7.1v1"/>
<path class="st0" d="M35.2,86.3h2.2c1.2,0,2.2,1,2.2,2.2v7.6c0,1.4-1.2,2.6-2.6,2.6h-1.5c-1.4,0-2.6-1.2-2.6-2.6v-7.6
	C33,87.2,34,86.3,35.2,86.3L35.2,86.3z"/>
<line class="st2" x1="36.3" y1="50.8" x2="36.3" y2="50.8"/>
<path class="st3" d="M33.7,93.2c0.8,0.3,1.7,0.5,2.6,0.5l0,0c0.9,0,1.8-0.2,2.6-0.5v-2.4h-5.2L33.7,93.2z"/>
<path class="st0" d="M36,91.5L36,91.5c-7.4,0-14.2-8.6-14.2-16V62.1c0-7.5,6.1-13.6,13.7-13.7h1.8c7.5,0,13.6,6.1,13.7,13.7v13.8
	C50.8,84.5,44.5,91.5,36,91.5z"/>
<line class="st4" x1="40.7" y1="68.7" x2="46.4" y2="68.7"/>
<line class="st4" x1="25.8" y1="68.7" x2="31.5" y2="68.7"/>
<path class="st4" d="M29.8,83c1.4,1,2.9,1.7,4.6,2.1c1.8,0.5,3.6,0.5,5.3-0.1"/>
<path class="st5" d="M37.5,68.7v8.9c0,0.9-0.7,1.6-1.6,1.6l0,0l0,0c-0.9,0-1.6-0.7-1.6-1.6l0,0"/>
<circle class="st6" cx="43.9" cy="72.2" r="1.2"/>
<circle class="st6" cx="29.8" cy="72.2" r="1.2"/>
<path class="st7" d="M21.7,65.1c0,0-0.2-2.9-0.4-5.6c-0.2-2.4,0.3-4.8,1.4-7c0.5-1.1,1.1-2.1,1.9-3c1.4-1.9,3.1-3.5,5.1-4.7
	c0,0,0.8,2,1.6,1.5c1.3-0.9,2.6-1.6,4.1-2.1c2.3-0.9,5-1.4,5.6-1.1c0,0-0.9,2,1,2.6c7,2.5,9.7,8,9.2,13.7C51,62,50.8,65,50.8,65v5.4
	l0,0v-2.9l-2.2-2.3c-0.8-0.9-1.2-2.1-1.2-3.3v-1.7c0,0-1.2-2.4-11.9,2.3c-4.8,2.1-10.4-2-10.4-2v1.1c0,1.1-0.3,2.2-0.9,3.1l-2.3,2.2
	v3.5l0,0v-5.6L21.7,65.1z"/>
<line class="st4" x1="47.5" y1="61.8" x2="47.5" y2="58.6"/>
<line class="st8" x1="26" y1="62.4" x2="25.6" y2="61.5"/>
<line class="st8" x1="46.4" y1="61.3" x2="47" y2="60"/>
<line class="st9" x1="30.4" y1="47" x2="31" y2="45.5"/>
<path class="st10" d="M68,48.5l1.4,2.7l3,0.5c0.1,0,0.1,0.1,0.1,0.2c0,0,0,0,0,0.1l-2.2,2l0.5,3c0,0.1,0,0.1-0.1,0.1c0,0,0,0-0.1,0
	L68,55.7l-2.7,1.4c-0.1,0-0.1,0-0.2-0.1c0,0,0,0,0-0.1l0.5-3l-2.1-2.1c0-0.1,0-0.1,0-0.2c0,0,0,0,0.1,0l3-0.5L68,48.5
	C67.8,48.5,67.9,48.4,68,48.5L68,48.5z"/>
<path class="st10" d="M80.5,48.5l1.3,2.7l3,0.5c0.1,0,0.1,0.1,0.1,0.2c0,0,0,0,0,0.1l-2.2,2l0.5,3c0,0.1,0,0.1-0.1,0.1
	c0,0,0,0-0.1,0l-2.6-1.4l-2.7,1.4c-0.1,0-0.1,0-0.2-0.1c0,0,0,0,0-0.1l0.5-3l-2.1-2.1c0-0.1,0-0.1,0-0.2c0,0,0,0,0.1,0l3-0.5
	L80.5,48.5C80.3,48.5,80.4,48.4,80.5,48.5L80.5,48.5z"/>
<path class="st10" d="M94.2,48.5l1.3,2.7l3,0.5c0.1,0,0.1,0.1,0.1,0.2c0,0,0,0,0,0.1l-2.2,2l0.5,3c0,0.1,0,0.1-0.1,0.1
	c0,0,0,0-0.1,0l-2.6-1.4l-2.7,1.4c-0.1,0-0.1,0-0.2-0.1c0,0,0,0,0-0.1l0.5-3l-2.1-2.1c0-0.1,0-0.1,0-0.2c0,0,0,0,0.1,0l3-0.5
	L94.2,48.5C94,48.5,94.1,48.4,94.2,48.5L94.2,48.5z"/>
<line class="st11" x1="64.3" y1="68" x2="94.1" y2="68"/>
<line class="st11" x1="64.3" y1="74.9" x2="98.6" y2="74.9"/>
<line class="st11" x1="64.3" y1="81.7" x2="86" y2="81.7"/>
<path class="st0" d="M46.3,20.8v-7.7c0-6.5,5.2-11.8,11.7-11.8l0,0c6.5,0,11.8,5.3,11.7,11.8v7.7H46.3z"/>
<polyline class="st12" points="49.4,23.2 49.4,20.8 66.7,20.8 66.7,23.2 "/>
<line class="st4" x1="49.4" y1="20.8" x2="49.4" y2="25"/>
<line class="st4" x1="66.7" y1="20.8" x2="66.7" y2="25"/>
</svg>
