<?xml version="1.0" encoding="utf-8"?>
<!-- Generator: Adobe Illustrator 21.0.0, SVG Export Plug-In . SVG Version: 6.00 Build 0)  -->
<svg version="1.1" id="Layer_1" xmlns="http://www.w3.org/2000/svg" xmlns:xlink="http://www.w3.org/1999/xlink" x="0px" y="0px"
	 width="137px"  height="90px" viewBox="0 0 117 84.9" style="enable-background:new 0 0 117 84.9;" xml:space="preserve">
<style type="text/css">
	.st0{fill:#FFFFFF;stroke:#6B738E;stroke-width:1.2;stroke-miterlimit:10;}
	.st1{fill:#CDD1D3;stroke:#6B738E;stroke-width:1.2;stroke-miterlimit:10;}
	.st2{fill:none;stroke:#6B738E;stroke-width:1.2;stroke-miterlimit:10;}
	.st3{fill:#AFEFA0;}
	.st4{opacity:0.25;fill:#3B4167;enable-background:new    ;}
	.st5{opacity:0.2;fill:#3B4167;enable-background:new    ;}
	.st6{fill:#C9C9F4;stroke:#6B738E;stroke-width:1.2;stroke-miterlimit:10;}
	.st7{fill:#CEEAE8;stroke:#6B738E;stroke-width:1.2;stroke-miterlimit:10;}
</style>
<title>wallet</title>
<path class="st0" d="M99.7,38.7h6.6c5.6,0,10.2,4.5,10.2,10.2l0,0c0,5.6-4.6,10.2-10.2,10.2h-6.6V38.7z"/>
<polyline class="st1" points="97.6,39.8 99.7,39.8 99.7,58 97.6,58 "/>
<line class="st2" x1="99.7" y1="39.8" x2="96" y2="39.8"/>
<line class="st2" x1="99.7" y1="58" x2="96" y2="58"/>
<circle class="st2" cx="108.1" cy="48.9" r="2.3"/>
<path class="st0" d="M85.8,83.8H13.9c-4.9,0-7.4-4-7.4-8.9V29.1c0-4.9,4-8.9,8.9-9l67.5-0.7c7.8-0.2,11.7,4.1,11.7,10.6v44.9
	C94.6,79.8,90.7,83.8,85.8,83.8z"/>
<polygon class="st0" points="79.9,40 12.5,61.4 1.7,27.6 9.2,20 67.5,1.5 "/>
<polygon class="st3" points="77,40.8 15.7,60.3 5.6,29 12.6,22 65.5,5.2 "/>
<polygon class="st4" points="81.1,42.1 18.9,61.9 8.9,30.6 15.8,23.6 69.6,6.5 "/>
<polygon class="st0" points="77.9,49.6 12.5,61.4 6.1,26.5 14.6,19.9 74.7,9 80.9,42.7 "/>
<polygon class="st3" points="79.1,49.2 15.8,60.7 9.8,28.4 17.7,22.3 72.3,12.5 "/>
<polygon class="st5" points="78.4,54.6 14.1,57.4 12.6,24.6 21.2,19.6 76.6,17.2 "/>
<line class="st2" x1="27.1" y1="62.7" x2="94.6" y2="62.7"/>
<line class="st2" x1="27.1" y1="49.7" x2="94.6" y2="47.3"/>
<path class="st6" d="M77.6,54.6h11c1.7,0,3.1,1.4,3.1,3.1l0,0v5l0,0H77.6l0,0V54.6L77.6,54.6z"/>
<path class="st7" d="M77.5,39.8l11-0.4c1.7-0.1,3.2,1.3,3.3,3l0,0l0.2,5l0,0L77.8,48l0,0L77.5,39.8L77.5,39.8z"/>
<path class="st5" d="M71.4,83.6l-54.6-0.5c-4.9,0.1-9-3.8-9.1-8.7L3.3,28.1c-0.1-4.9,6.4-8.1,11.3-8.2l60.5-0.4
	c7.8,0,10.5,5.3,10.6,10.3L86,73.9c0,1.4-0.3,2.9-0.9,4.2c-0.5,0.9-2,5.6-7,5.6C74.6,83.6,74.1,83.5,71.4,83.6z"/>
<path class="st0" d="M9.9,19.9h62.9c5.2,0,9.4,4.2,9.4,9.4v44.9c0,5.2-4.2,9.4-9.4,9.4H9.9c-5.2,0-9.4-4.2-9.4-9.4V29.3
	C0.5,24.1,4.7,19.9,9.9,19.9z"/>
<circle class="st2" cx="69.8" cy="48.9" r="3.8"/>
</svg>
