<?xml version="1.0" encoding="utf-8"?>
<!-- Generator: Adobe Illustrator 21.0.0, SVG Export Plug-In . SVG Version: 6.00 Build 0)  -->
<svg version="1.1" id="Layer_1" xmlns="http://www.w3.org/2000/svg" xmlns:xlink="http://www.w3.org/1999/xlink" x="0px" y="0px"
	width="117px" height="134px" viewBox="0 0 117 134" style="enable-background:new 0 0 117 134;" xml:space="preserve">
<style type="text/css">
	.st0{fill:#FFFFFF;stroke:#6B738E;stroke-width:1.2;stroke-miterlimit:10;}
	.st1{fill:#CDD1D3;stroke:#6B738E;stroke-width:1.2;stroke-miterlimit:10;}
	.st2{fill:none;stroke:#6B738E;stroke-width:1.2;stroke-miterlimit:10;}
	.st3{fill:#CDD1D3;}
	.st4{fill:#C9C9F4;stroke:#6B738E;stroke-width:1.2;stroke-miterlimit:10;}
</style>
<title>shield</title>
<polyline class="st0" points="32.7,25.7 32.7,17.4 40.1,17.4 40.1,25.7 "/>
<polyline class="st0" points="76.9,25.7 76.9,17.4 84.3,17.4 84.3,25.7 "/>
<polyline class="st1" points="32.7,22.9 32.7,17.4 40.1,17.4 40.1,22.9 "/>
<polyline class="st1" points="76.9,22.9 76.9,17.4 84.3,17.4 84.3,22.9 "/>
<rect x="6" y="7.8" class="st0" width="105" height="9.6"/>
<path class="st0" d="M61.2,29.9h34.2c1.7,0,3,1.4,3,3v0v76.7l-39.9,16l-39.9-16V33c0-1.7,1.4-3,3-3l0,0H61.2z"/>
<line class="st2" x1="58.4" y1="125.7" x2="58.4" y2="134"/>
<line class="st2" x1="45.1" y1="120.1" x2="45.1" y2="128.4"/>
<line class="st2" x1="31.8" y1="114.4" x2="31.8" y2="122.7"/>
<line class="st2" x1="18.5" y1="108.8" x2="18.5" y2="117.1"/>
<line class="st2" x1="58.4" y1="125.5" x2="58.4" y2="133.9"/>
<line class="st2" x1="71.7" y1="120" x2="71.7" y2="128.3"/>
<line class="st2" x1="85" y1="114.4" x2="85" y2="122.7"/>
<line class="st2" x1="98.4" y1="108.8" x2="98.4" y2="117.1"/>
<path class="st0" d="M108,13.8v6.5c0,2.3,1.9,4.1,4.1,4.2l0,0c2.3,0,4.1-1.9,4.1-4.1V4.9c0-2.3-1.8-4.2-4.1-4.2c0,0,0,0,0,0l0,0
	c-2.3,0-4.1,1.9-4.1,4.2c0,0,0,0,0,0v6.3"/>
<path class="st0" d="M9,13.8v6.5c0,2.3-1.9,4.1-4.1,4.2l0,0c-2.3,0-4.1-1.9-4.1-4.1V4.9c0-2.3,1.8-4.2,4.1-4.2c0,0,0,0,0,0l0,0
	C7.2,0.7,9,2.6,9,4.9c0,0,0,0,0,0v6.3"/>
<path class="st3" d="M47.5,81.2c2.6,7.3,6,14.7,13.9,21.1c0,0,0.1,0.1,0.1,0.1l0.1,0.1c0.1,0,0.1,0.1,0.3,0.1c0.1,0,0.2,0,0.3-0.1
	c0,0,0.1,0,0.1-0.1l0,0c0.1,0,0.1,0,0.1-0.1C80.1,87.7,80.9,64,80.9,63.8c-0.7-1.6-1.6-3-2.7-4.3c-8.4-0.5-9.9-5.4-10-5.6
	c-0.1-0.3-0.3-0.5-0.6-0.4l-11.9,4.8c-0.2,0-0.4,0.1-0.6,0.3c-3.3,5.6-10.4,5.2-10.4,5.1c-0.2,0-0.4,0.1-0.5,0.2
	c-0.1,0.1-0.2,0.3-0.2,0.4c0.4,5.7,1.5,11.2,3.4,16.6C47.4,81,47.4,81.1,47.5,81.2z"/>
<path class="st0" d="M43.2,76.1c2.9,8.6,8.1,16.3,15.1,22.2c0,0,0.1,0.1,0.1,0.1l0.1,0.1c0.1,0,0.1,0.1,0.3,0.1c0.1,0,0.2,0,0.3-0.1
	c0,0,0.1,0,0.1-0.1l0,0c0.1,0,0.1,0,0.1-0.1C76.9,83.8,77.7,60,77.7,59.8c0-0.3-0.2-0.6-0.6-0.6c-8.4-0.5-9.9-5.4-10-5.6
	c-0.1-0.3-0.3-0.5-0.6-0.4H51.4c-0.2,0-0.4,0.1-0.6,0.3c-3.3,5.6-10.4,5.2-10.4,5.1c-0.2,0-0.4,0.1-0.5,0.2
	c-0.1,0.1-0.2,0.3-0.2,0.4c0.4,5.7,1.5,11.2,3.4,16.6C43.1,75.9,43.1,76,43.2,76.1z"/>
<path class="st4" d="M58.5,98.4c0.1,0,0.1,0.1,0.2,0.1c0.1,0,0.2,0,0.3-0.1c0,0,0.1,0,0.1-0.1l0,0c0.1,0,0.1,0,0.1-0.1
	C76.9,83.8,77.7,60,77.7,59.8c0-0.3-0.2-0.6-0.6-0.6c-8.4-0.5-9.9-5.4-10-5.6c-0.1-0.3-0.3-0.5-0.6-0.4h-7.8L58.5,98.4z"/>
</svg>
