<?xml version="1.0" encoding="utf-8"?>
<!-- Generator: Adobe Illustrator 21.0.0, SVG Export Plug-In . SVG Version: 6.00 Build 0)  -->
<svg version="1.1" id="Layer_1" xmlns="http://www.w3.org/2000/svg" xmlns:xlink="http://www.w3.org/1999/xlink" x="0px" y="0px"
	width="123px"  height="134px" viewBox="0 0 117 126.8" style="enable-background:new 0 0 117 126.8;" xml:space="preserve">
<style type="text/css">
	.st0{fill:#FFFFFF;stroke:#6B738E;stroke-width:1.2;stroke-miterlimit:10;}
	.st1{opacity:0.68;fill:#CDD1D3;enable-background:new    ;}
	.st2{fill:#FFFDFD;stroke:#6B738E;stroke-width:1.2;stroke-miterlimit:10;}
	.st3{fill:#C6CCCA;}
	.st4{fill:#FFFFFF;stroke:#6B738E;stroke-width:1.2;stroke-linejoin:round;}
	.st5{fill:none;stroke:#6B738E;stroke-width:1.2;stroke-linejoin:round;}
	.st6{fill:#6B738E;stroke:#6B738E;stroke-width:1.2;stroke-miterlimit:10;}
	.st7{fill:#FFFFFF;}
	.st8{fill:#6B738E;}
	.st9{fill:#A8ABAF;stroke:#6B738E;stroke-width:1.2;stroke-miterlimit:10;}
</style>
<title>shirt</title>
<path class="st0" d="M94.5,61.8c0,0,5.9-4.3,10.8-5.3c3.3-0.8,6.6-2,9.6-3.7c1.2-0.6,1.8-2.1,1.2-3.3c0-0.1-0.1-0.2-0.1-0.3
	l-13.4-24.7c-0.5-1-1.4-1.7-2.5-2.1"/>
<path class="st0" d="M22.6,61.8c0,0-5.9-4.3-10.8-5.3c-3.3-0.8-6.6-2-9.6-3.7C1,52.1,0.4,50.7,1,49.4c0-0.1,0.1-0.2,0.2-0.3
	l13.2-24.6c0.5-1,1.4-1.7,2.5-2.1"/>
<path class="st1" d="M94.6,38.5c0,0,2.7,10.7,3.1,12.2s1.9,7.2,1.9,7.2l-5,2.8V38.5z"/>
<path class="st1" d="M22.7,38.5c0,0-2.7,10.7-3.1,12.2s-1.9,7.2-1.9,7.2l5,2.8V38.5z"/>
<path class="st2" d="M25.2,57c0,0-5.9-4.3-10.8-5.3c-3.3-0.8-6.6-2-9.6-3.7c-1.2-0.6-1.8-2.1-1.2-3.3c0.1-0.1,0.1-0.2,0.2-0.3
	L17,19.8c0.5-1,1.4-1.7,2.5-2.1l21.7-7.3c0.4-0.1,0.8,0,1.1,0.3L58,21.6l16.8-11.1c0.3-0.3,0.7-0.4,1.1-0.3l21.7,7.3
	c1.1,0.4,2,1.1,2.5,2.1l13.2,24.6c0.8,1.1,0.5,2.7-0.7,3.5c-0.1,0.1-0.2,0.1-0.3,0.2c-3,1.7-6.2,3-9.6,3.7c-5,1-10.8,5.3-10.8,5.3"
	/>
<path class="st0" d="M93.9,38.5v82.9c0,1-0.8,1.8-1.8,1.8l0,0c0,0-10.4,2.7-33,2.3c-22.9-0.4-34.2-2.3-34.2-2.3
	c-1,0-1.8-0.8-1.8-1.8l0,0V38.5"/>
<path class="st3" d="M94.6,38.5c0,0,2.7,10.7,3.1,12.2s1.9,0.7,1.9,0.7l-5,2.8V38.5z"/>
<path class="st3" d="M22.6,38.5c0,0-2.7,10.7-3.1,12.2s-1.9,0.7-1.9,0.7l5,2.8V38.5z"/>
<polygon class="st3" points="51.3,55 30.5,55 28.3,53.8 30.5,44.2 50,41.9 51.3,44.2 "/>
<rect x="28.3" y="42.1" class="st4" width="20.7" height="10.7"/>
<line class="st5" x1="37.5" y1="45.8" x2="45.8" y2="45.8"/>
<line class="st5" x1="37.5" y1="48.8" x2="44.4" y2="48.8"/>
<path class="st6" d="M57,108.1l-4.5-7.8L56,31h5l3.8,69.3l-4.4,7.9c-0.6,0.9-1.8,1.3-2.7,0.7C57.4,108.7,57.2,108.4,57,108.1z"/>
<path class="st7" d="M55,33.4l2,1.6c0.5,0.4,1.2,0.4,1.7,0l3.3-2.5l-0.2-3.6h-6.5L55,33.4z"/>
<path class="st6" d="M55.8,25.9l-3.3,3.4l4.7,3.6c0.5,0.4,1.1,0.4,1.6,0l4.7-3.6l-3.2-3.4L58,23.8L55.8,25.9z"/>
<path class="st8" d="M34.1,47.3c0.6-0.3,0.8-1,0.5-1.6s-1-0.8-1.6-0.5s-0.8,1-0.5,1.6c0.1,0.2,0.3,0.4,0.5,0.5
	c-0.7,0.2-1.2,0.9-1.2,1.6c0,0.9,3.5,1,3.5,0C35.3,48.2,34.8,47.6,34.1,47.3z"/>
<path class="st0" d="M57.1,21.9L41.7,6.2c-1.8-1.8-4.6-4.7,9.3-4.7h14.2c14,0,11.1,2.9,9.3,4.7L59,21.9l-0.9,1.2L57.1,21.9z"/>
<path class="st9" d="M43.7,9h27.2l2.8,6.2l-12.6,8.6c0,0-8.4,0.5-9.1-0.6s-4.7-5.1-5.3-6.7S43.7,9,43.7,9z"/>
<path class="st0" d="M50.2,31.9L38.1,11.7c-1.2-3.2,0.9-8.5,1.7-7.6L57,21.7c0.8,0.8,0.8,2.2,0,3l0,0L50.2,31.9z"/>
<path class="st0" d="M66,31.9l12.1-20.2c1.2-3.2-0.9-8.4-1.7-7.6L59.2,21.7c-0.8,0.8-0.8,2.2,0,3l0,0L66,31.9z"/>
</svg>
