<?xml version="1.0" encoding="utf-8"?>
<!-- Generator: Adobe Illustrator 21.0.0, SVG Export Plug-In . SVG Version: 6.00 Build 0)  -->
<svg version="1.1" id="Layer_1" xmlns="http://www.w3.org/2000/svg" xmlns:xlink="http://www.w3.org/1999/xlink" x="0px" y="0px"
	  width="175px"  height="115px"  viewBox="0 0 175 116.3" style="enable-background:new 0 0 175 116.3;" xml:space="preserve">
<style type="text/css">
	.st0{fill:#FFFFFF;stroke:#6B738E;stroke-width:1.2;stroke-miterlimit:10;}
	.st1{fill:#AFEFA0;stroke:#6B738E;stroke-width:1.2;stroke-miterlimit:10;}
	.st2{fill:#FFFFFF;}
	.st3{fill:none;stroke:#6B738E;stroke-width:1.2;stroke-miterlimit:10;}
	.st4{fill:#6B738E;stroke:#6B738E;stroke-width:1.2;stroke-miterlimit:10;}
	.st5{fill:#F3F9F2;stroke:#6B738E;stroke-width:1.2;stroke-miterlimit:10;}
	.st6{fill:#CCDBC8;}
	.st7{fill:#6B738E;}
	.st8{fill:none;stroke:#6B738E;stroke-width:1.2;stroke-linejoin:round;}
	.st9{opacity:0.2;fill:#3B4167;enable-background:new    ;}
	.st10{fill:#CDD1D3;stroke:#6B738E;stroke-width:1.2;stroke-miterlimit:10;}
</style>
<title>TV</title>
<path class="st0" d="M132.9,109.9l-90.8,0.2c-2.3,0-4.1-1.9-4.1-4.2V21.3c0-2.3,1.9-4.1,4.1-4.1l90.8-0.1c2.3,0,4.2,1.9,4.2,4.1l0,0
	v84.5C137,108.1,135.2,109.9,132.9,109.9z"/>
<path class="st1" d="M47.1,22h80.8c2.3,0,4.2,1.9,4.2,4.2v68c0,2.3-1.9,4.2-4.2,4.2H47.1c-2.3,0-4.2-1.9-4.2-4.2v-68
	C42.9,23.9,44.8,22,47.1,22z"/>
<path class="st2" d="M132.1,57.5h-4.5l-3.8-3.6l-3.2,3.5l-4.9-4.5l-1.5,4.5H66L62.3,47l-2,6.6L57,49.9l-2.2,7.6H42.9V26.2
	c0-2.3,1.9-4.2,4.2-4.2h80.8c2.3,0,4.2,1.8,4.2,4.1v0.1V57.5z"/>
<path class="st3" d="M47.1,22h80.8c2.3,0,4.2,1.9,4.2,4.2v68c0,2.3-1.9,4.2-4.2,4.2H47.1c-2.3,0-4.2-1.9-4.2-4.2v-68
	C42.9,23.9,44.8,22,47.1,22z"/>
<path class="st4" d="M104.5,90.7l-13.6-6l4.3-8.6h9.4v-24c0-4.3-1.9-8.4-5.2-11.2c-0.9-0.9-2.1-1.5-3.3-2c-0.4-0.2-2.3,0.6-2.7,0.4
	s-1.1-1.5-1.4-1.6c-1.3-0.3-2.6-0.4-3.9-0.3c-8.4,0-15.9,5.8-15.9,14.7v25.7c-0.2,5.2,0,10.6,0.5,15.8"/>
<path class="st5" d="M112.1,98.1c-2.8-8.2-11.3-15.6-19.9-15.6h-8.4c-8.6,0-17.3,7.6-20.2,15.6"/>
<path class="st6" d="M100.8,98.1c0.2-1.8,0.2-3.7,0-5.5l-26.3,0.1c-0.6,1.7-1.4,3.5-1.6,5.4H100.8"/>
<path class="st0" d="M85,73.2v10.6c-3.7,1.3-7.5,4.5-9.6,8.2h22.3V73.2H85z"/>
<path class="st0" d="M88.7,49.1L88.7,49.1c-0.8-0.2-1.5-0.3-2.3-0.3c-1.6-0.1-1.2-1.8-1.2-1.8c-1.2,0.8-2.4,1.4-3.8,1.8
	c-1.1,0.2-2.3,0.3-3.4,0.7l0,0c-2.1,0.6-3.4,2.5-3.4,4.6v16.1c0,2.4,5.4,9.1,10.4,9.1c3.2,0,8.2-2.6,10.4-4.5l0.5-10l-0.6-7.7
	C95.2,53.3,92.5,50,88.7,49.1z"/>
<path class="st3" d="M85.4,59.4c0.8-0.3,1.6-0.6,2.6-0.6c0.9,0.1,1.7,0.3,2.6,0.6"/>
<circle class="st7" cx="88.3" cy="62.1" r="1.3"/>
<circle class="st7" cx="79" cy="62.1" r="1.3"/>
<path class="st8" d="M76,59.4c0.8-0.4,1.6-0.7,2.6-0.6h0.5c1.3,0.1,2.4,1.1,2.7,2.4c0.4,1.6-0.8,4.6-0.7,5.9
	c0.1,1.2,1.3,1.4,1.9,1.4c0.8-0.2,1.5-0.6,1.9-1.4"/>
<path class="st8" d="M79.7,72.1c1.5,0.3,2.9,0.5,4.5,0.6c1,0,1.9-0.5,2.4-1.4"/>
<path class="st8" d="M82.2,75c0.5-0.2,1-0.3,1.5-0.3c0.6,0,1.2,0.1,1.8,0.3"/>
<path class="st9" d="M91.9,98.1h10.6V55.8l-7.6-0.4c0,0-0.3,11.9-2,16.8c-1.5,4.5-2.8,5.6-2.8,13.9C90,89.7,91.4,94.4,91.9,98.1z"/>
<path class="st4" d="M94,98.1h10.6V55.8h-9.4c0,0,0,7.1-0.4,12.1c-0.4,5-2.7,10.1-2.7,18.5C92,90.2,93.5,94.4,94,98.1z"/>
<path class="st5" d="M79.9,92.8"/>
<line class="st3" x1="89.5" y1="17" x2="103.7" y2="1.7"/>
<line class="st3" x1="90.6" y1="17" x2="76.3" y2="1.7"/>
<circle class="st7" cx="56.3" cy="104.3" r="1.6"/>
<circle class="st7" cx="50.6" cy="104.3" r="1.6"/>
<circle class="st7" cx="44.8" cy="104.3" r="1.6"/>
<polyline class="st3" points="47.3,116.3 47.3,110.1 130,110.1 130,116.3 "/>
<polyline class="st10" points="47.3,114 47.3,110.1 130,110.1 130,114 "/>
</svg>
