
1.18k - 25.71% saving
<svg id="Layer_1" xmlns="http://www.w3.org/2000/svg" width="145" height="134" viewBox="0 0 117 109.7">
  <style>
    .st0{fill:#FFFFFF;stroke:#6B738E;stroke-width:1.2;stroke-miterlimit:10;} .st1{fill:#F3F3FF;stroke:#6B738E;stroke-width:1.2;stroke-miterlimit:10;} .st2{fill:none;} .st3{fill:#DBDCDD;} .st4{fill:none;stroke:#6B738E;stroke-width:1.2;stroke-miterlimit:10;} .st5{fill:none;stroke:#6B738E;stroke-width:1.2;stroke-linejoin:round;} .st6{fill:#6B738E;} .st7{fill:#6B738E;stroke:#6B738E;stroke-width:1.2;stroke-miterlimit:10;} .st8{fill:none;stroke:#FFFFFF;stroke-width:0.75;stroke-miterlimit:10;} .st9{fill:none;stroke:#FFFFFF;stroke-width:0.5;stroke-miterlimit:10;} .st10{fill:#FFC688;} .st11{fill:none;stroke:#6B738E;stroke-width:2;stroke-miterlimit:10;} .st12{fill:#CDD1D3;stroke:#6B738E;stroke-width:1.2;stroke-miterlimit:10;}
  </style>
  <path class="st0" d="M.6 71.3V31c0-2 2-3.6 4.5-3.6h106.8c2.5 0 4.5 1.6 4.5 3.6v74c0 2-2 3.6-4.5 3.6H5.1c-2.5 0-4.5-1.6-4.5-3.6V71.3z"/>
  <path class="st0" d="M4.2 34.5c0-1.8 1.9-3.3 4.1-3.3h100.3c2.3 0 4.1 1.5 4.1 3.3v67.1c0 1.8-1.9 3.3-4.1 3.3H8.4c-2.3 0-4.1-1.5-4.1-3.3l-.1-67.1z"/>
  <path class="st0" d="M50.8 67.4l.6.3c1.4.3 2.4 1.7 2.1 3.1 0 0-.3 3.2-.4 3.9-.1.7-1.1 2.1-2 2.1h-.5m-28.9-9.4l-.6.3c-1.4.3-2.4 1.7-2.1 3.1 0 0 .3 3.2.4 3.9.1.7 1.1 2.1 2.1 2.1h.3"/>
  <path class="st1" d="M16.3 101.7v-1c0-3.9 3.2-7 7.1-7.1h25.9c3.9 0 7.1 3.2 7.1 7.1v1"/>
  <path class="st0" d="M35.2 86.3h2.2c1.2 0 2.2 1 2.2 2.2v7.6c0 1.4-1.2 2.6-2.6 2.6h-1.5c-1.4 0-2.6-1.2-2.6-2.6v-7.6c.1-1.3 1.1-2.2 2.3-2.2z"/>
  <path class="st3" d="M33.7 93.2c.8.3 1.7.5 2.6.5.9 0 1.8-.2 2.6-.5v-2.4h-5.2v2.4z"/>
  <path class="st0" d="M36 91.5c-7.4 0-14.2-8.6-14.2-16V62.1c0-7.5 6.1-13.6 13.7-13.7h1.8c7.5 0 13.6 6.1 13.7 13.7v13.8c-.2 8.6-6.5 15.6-15 15.6z"/>
  <path class="st4" d="M40.7 68.7h5.7m-20.6 0h5.7M29.8 83c1.4 1 2.9 1.7 4.6 2.1 1.8.5 3.6.5 5.3-.1"/>
  <path class="st5" d="M37.5 68.7v8.9c0 .9-.7 1.6-1.6 1.6-.9 0-1.6-.7-1.6-1.6"/>
  <circle class="st6" cx="43.9" cy="72.2" r="1.2"/>
  <circle class="st6" cx="29.8" cy="72.2" r="1.2"/>
  <path class="st7" d="M21.7 65.1s-.2-2.9-.4-5.6c-.2-2.4.3-4.8 1.4-7 .5-1.1 1.1-2.1 1.9-3 1.4-1.9 3.1-3.5 5.1-4.7 0 0 .8 2 1.6 1.5 1.3-.9 2.6-1.6 4.1-2.1 2.3-.9 5-1.4 5.6-1.1 0 0-.9 2 1 2.6 7 2.5 9.7 8 9.2 13.7-.2 2.6-.4 5.6-.4 5.6v5.4-2.9l-2.2-2.3c-.8-.9-1.2-2.1-1.2-3.3v-1.7s-1.2-2.4-11.9 2.3c-4.8 2.1-10.4-2-10.4-2v1.1c0 1.1-.3 2.2-.9 3.1l-2.3 2.2v3.5-5.6l-.2.3z"/>
  <path class="st4" d="M47.5 61.8v-3.2"/>
  <path class="st8" d="M26 62.4l-.4-.9m20.8-.2L47 60"/>
  <path class="st9" d="M30.4 47l.6-1.5"/>
  <path class="st10" d="M68 48.5l1.4 2.7 3 .5c.1 0 .1.1.1.2v.1l-2.2 2 .5 3c0 .1 0 .1-.1.1h-.1L68 55.7l-2.7 1.4c-.1 0-.1 0-.2-.1v-.1l.5-3-2.1-2.1v-.2h.1l3-.5 1.4-2.6c-.2 0-.1-.1 0 0zm12.5 0l1.3 2.7 3 .5c.1 0 .1.1.1.2v.1l-2.2 2 .5 3c0 .1 0 .1-.1.1H83l-2.6-1.4-2.7 1.4c-.1 0-.1 0-.2-.1v-.1l.5-3-2.1-2.1v-.2h.1l3-.5 1.5-2.6c-.2 0-.1-.1 0 0zm13.7 0l1.3 2.7 3 .5c.1 0 .1.1.1.2v.1l-2.2 2 .5 3c0 .1 0 .1-.1.1h-.1l-2.6-1.4-2.7 1.4c-.1 0-.1 0-.2-.1v-.1l.5-3-2.1-2.1v-.2h.1l3-.5 1.5-2.6c-.2 0-.1-.1 0 0z"/>
  <path class="st11" d="M64.3 68h29.8m-29.8 6.9h34.3m-34.3 6.8H86"/>
  <path class="st0" d="M46.3 20.8v-7.7c0-6.5 5.2-11.8 11.7-11.8 6.5 0 11.8 5.3 11.7 11.8v7.7H46.3z"/>
  <path class="st12" d="M49.4 23.2v-2.4h17.3v2.4"/>
  <path class="st4" d="M49.4 20.8V25m17.3-4.2V25"/>
</svg>
