<?xml version="1.0" encoding="UTF-8" standalone="no"?>
<svg width="65px" height="71px" viewBox="0 0 65 71" version="1.1" xmlns="http://www.w3.org/2000/svg" xmlns:xlink="http://www.w3.org/1999/xlink">
    <!-- Generator: sketchtool 41.2 (35397) - http://www.bohemiancoding.com/sketch -->
    <title>E9821F7E-EF98-4C0C-AEE9-BB25DAEAA6A4</title>
    <desc>Created with sketchtool.</desc>
    <defs></defs>
    <g id="Page-1" stroke="none" stroke-width="1" fill="none" fill-rule="evenodd">
        <g id="Wanted.tech-Copy" transform="translate(-608.000000, -3941.000000)">
            <g id="Page-1" transform="translate(610.000000, 3943.000000)">
                <path d="M6.9654,55.8755 C3.6424,51.8035 1.4134,46.8045 0.7254,41.3245 C0.5764,40.1405 0.5004,38.9325 0.5004,37.7075 C0.5004,35.7575 0.6944,33.8535 1.0644,32.0125 C3.7064,18.8595 15.3234,8.9535 29.2544,8.9535 C45.1354,8.9535 58.0094,21.8265 58.0094,37.7075 C58.0094,53.5885 45.1354,66.4625 29.2544,66.4625 C22.3694,66.4625 16.0494,64.0425 11.0984,60.0065" id="Stroke-1" stroke="#45BD62" stroke-width="5" stroke-linejoin="round"></path>
                <path d="M17.1413,37.7077 C17.1413,31.0177 22.5643,25.5947 29.2543,25.5947 L29.2543,37.7077 L41.3683,37.7077 C41.3683,44.3977 35.9443,49.8207 29.2543,49.8207 C22.5643,49.8207 17.1413,44.3977 17.1413,37.7077" id="Fill-3" fill="#45BD62"></path>
                <path d="M29.2545,8.9531 L29.2545,0.5001" id="Stroke-5" stroke="#45BD62" stroke-width="5" stroke-linejoin="round"></path>
                <path d="M22.2719,0.5 L36.2369,0.5" id="Stroke-7" stroke="#45BD62" stroke-width="5" stroke-linejoin="round"></path>
                <path d="M49.5871,17.3751 L55.5641,11.3981" id="Stroke-9" stroke="#45BD62" stroke-width="5" stroke-linejoin="round"></path>
                <path d="M50.6269,6.4604 L60.5019,16.3354" id="Stroke-11" stroke="#45BD62" stroke-width="5" stroke-linejoin="round"></path>
            </g>
        </g>
    </g>
</svg>