<?xml version="1.0" encoding="utf-8"?>
<!-- Generator: Adobe Illustrator 21.0.0, SVG Export Plug-In . SVG Version: 6.00 Build 0)  -->
<svg version="1.1" id="Слой_1" xmlns="http://www.w3.org/2000/svg" xmlns:xlink="http://www.w3.org/1999/xlink" x="0px" y="0px"
	 width="65px" height="71px" viewBox="0 0 65 71" style="enable-background:new 0 0 65 71;" xml:space="preserve">
<title>E9821F7E-EF98-4C0C-AEE9-BB25DAEAA6A4</title>
<desc>Created with sketchtool.</desc>
<g id="Wanted.tech-Copy" transform="translate(-608.000000, -3941.000000)">
	<g id="Page-1" transform="translate(610.000000, 3943.000000)">
		<path id="Stroke-1" style="fill:none;stroke:#45BD62;stroke-width:5;stroke-linejoin:round;" d="M7,55.9
			c-3.3-4.1-5.6-9.1-6.2-14.6c-0.1-1.2-0.2-2.4-0.2-3.6c0-2,0.2-3.9,0.6-5.7C3.7,18.9,15.3,9,29.3,9C45.1,9,58,21.8,58,37.7
			S45.1,66.5,29.3,66.5C22.4,66.5,16,64,11.1,60"/>
		<path id="Stroke-5" style="fill:none;stroke:#45BD62;stroke-width:5;stroke-linejoin:round;" d="M29.3,9V0.5"/>
		<path id="Stroke-7" style="fill:none;stroke:#45BD62;stroke-width:5;stroke-linejoin:round;" d="M22.3,0.5h14"/>
		<path id="Stroke-9" style="fill:none;stroke:#45BD62;stroke-width:5;stroke-linejoin:round;" d="M49.6,17.4l6-6"/>
		<path id="Stroke-11" style="fill:none;stroke:#45BD62;stroke-width:5;stroke-linejoin:round;" d="M50.6,6.5l9.9,9.9"/>
	</g>
</g>
<path style="fill:none;stroke:#45BD62;stroke-width:100;stroke-dasharray:0,600,600,0;stroke-dashoffset:1000;" d="M32.5,27.3
	c-4.5,0-8.2,3.7-8.1,8.2c0,4.5,3.7,8.2,8.2,8.1s8.2-3.7,8.1-8.2S37,27.3,32.5,27.3">
<animate  accumulate="none" additive="replace" attributeName="stroke-dashoffset" attributeType="XML" calcMode="linear" dur="2s" fill="freeze" from="0" repeatCount="1" restart="always" to="482.5">
		</animate>
</path>
</svg>
