<?xml version="1.0" encoding="utf-8"?>
<!-- Generator: Adobe Illustrator 21.0.0, SVG Export Plug-In . SVG Version: 6.00 Build 0)  -->
<svg version="1.1" id="Слой_1" xmlns="http://www.w3.org/2000/svg" xmlns:xlink="http://www.w3.org/1999/xlink" x="0px" y="0px"
	 viewBox="0 0 636 317" style="enable-background:new 0 0 636 317;" xml:space="preserve">
<style type="text/css">
	.st0{clip-path:url(#SVGID_2_);}
	.st1{fill:#705FC5;stroke:#705FC5;stroke-linejoin:round;stroke-miterlimit:10;}
	.st2{fill:#3D9EE8;stroke:#3D9EE8;stroke-linejoin:round;stroke-miterlimit:10;}
	.st3{fill:#45BD62;}
	.st4{fill:#FFFFFF;stroke:#3D9EE8;stroke-linecap:round;stroke-miterlimit:10;}
	.st5{fill:#FFFFFF;stroke:#45BD62;stroke-linecap:round;stroke-miterlimit:10;}
	.st6{fill:#FFFFFF;stroke:#705FC5;stroke-linecap:round;stroke-miterlimit:10;}
	.st7{fill:#FFFFFF;}
	.st8{fill:none;stroke:#705FC5;stroke-miterlimit:10;}
	.st9{fill:none;stroke:#705FC5;stroke-linejoin:round;stroke-miterlimit:10;}
	.st10{fill:none;stroke:#45BD62;stroke-linejoin:round;stroke-miterlimit:10;}
	.st11{fill:none;stroke:#3D9EE8;stroke-linejoin:round;stroke-miterlimit:10;}
</style>
<title>wantedlogo</title>
<g>
	<defs>
		<rect id="SVGID_1_" x="-157.9" y="-138.3" width="952.4" height="595.3"/>
	</defs>
	<clipPath id="SVGID_2_">
		<use xlink:href="#SVGID_1_"  style="overflow:visible;"/>
	</clipPath>
	<g class="st0">
		<path class="st1" d="M212.8,159.3c0,31.4-25.4,56.8-56.8,56.8s-56.8-25.4-56.8-56.8c0-31.4,25.4-56.8,56.8-56.8
			C187.3,102.5,212.8,128,212.8,159.3"/>
		<rect id="square_1_" x="403" y="127" class="st2" width="134.6" height="64.7"/>
		<polygon id="diamond_1_" class="st3" points="308.3,208 236.6,159.3 308.3,110.7 380,159.3 		"/>
		<path class="st4" d="M430.9,166.7c0-1.7,1.3-3,3-3s3,1.3,3,3c0,1.7-1.3,3-3,3S430.9,168.4,430.9,166.7"/>
		<path class="st4" d="M441.1,156.2h-3.4v-4.1h3.4v-4.8h4.9v4.8h4.9v4.1H446v6.9c0,1.7,0.7,2.4,2.4,2.4c0.9,0,1.8-0.2,2.5-0.6v4.1
			c-1.3,0.7-2.7,1-4.1,0.9c-3.8,0-5.7-1.9-5.7-5.8L441.1,156.2z"/>
		<path class="st4" d="M466.1,158.9c0-1.9-1.6-3.5-3.6-3.5c0,0,0,0-0.1,0c-2.1-0.1-3.8,1.4-4,3.5H466.1z M456.4,167.4
			c-1.9-1.7-2.9-4.1-2.8-6.6c-0.1-2.4,0.8-4.7,2.5-6.5c1.7-1.8,4.1-2.7,6.5-2.6c2.3-0.1,4.5,0.9,6,2.7c1.5,1.8,2.3,4.1,2.3,6.5v1.3
			h-12.4c0.5,2.4,2.8,3.6,5.8,3.6c2,0,3.9-0.5,5.6-1.5v3.9c-1.9,1.3-4.3,1.9-6.6,1.8C460.7,170,458.3,169.1,456.4,167.4"/>
		<path class="st4" d="M476.3,167.4c-1.9-1.7-2.9-4.2-2.8-6.7c-0.1-2.5,0.9-4.9,2.8-6.6c1.8-1.7,4.2-2.5,6.7-2.5
			c1.8,0,3.5,0.4,5.1,1.2v4.2c-1.4-0.7-2.9-1-4.4-1c-1.4,0-2.8,0.4-3.9,1.4c-1.9,1.7-2.1,4.7-0.3,6.7c0.1,0.1,0.2,0.2,0.3,0.3
			c1.1,0.9,2.5,1.4,3.9,1.3c1.6,0,3.3-0.4,4.7-1.2v4.2c-1.7,0.9-3.6,1.3-5.5,1.3C480.5,170,478.1,169.1,476.3,167.4"/>
		<path class="st4" d="M497.5,169.4h-4.9v-24.3h4.9v9.1c1.5-1.7,3.6-2.6,5.8-2.5c4,0,6.3,2.7,6.3,7.2v10.6h-4.9v-9.6
			c0-2.7-1.5-3.7-3.3-3.7c-1.6,0.1-3.1,0.9-3.9,2.3V169.4z"/>
		<path class="st5" d="M299.9,158.9c0-1.9-1.6-3.5-3.6-3.5c0,0,0,0-0.1,0c-2.1-0.1-3.8,1.4-4,3.5H299.9z M290.2,167.4
			c-1.9-1.7-2.9-4.1-2.8-6.6c-0.1-2.4,0.8-4.7,2.5-6.5c1.7-1.8,4.1-2.7,6.5-2.6c2.3-0.1,4.5,0.9,6,2.7c1.5,1.8,2.3,4.1,2.3,6.5v1.3
			h-12.4c0.5,2.4,2.8,3.6,5.8,3.6c2,0,3.9-0.5,5.6-1.5v3.9c-1.9,1.3-4.3,1.9-6.6,1.8C294.6,169.9,292.1,169,290.2,167.4"/>
		<path class="st5" d="M321.3,163v-4.5c-0.9-1.6-2.5-2.6-4.3-2.6c-1.3,0-2.5,0.5-3.4,1.4c-1.8,2-1.8,4.9,0,6.9
			c0.9,0.9,2.1,1.5,3.4,1.4C318.8,165.6,320.4,164.6,321.3,163 M309.7,167.3c-1.6-1.8-2.4-4.1-2.3-6.5c-0.1-2.4,0.7-4.7,2.3-6.5
			c1.5-1.7,3.6-2.7,5.9-2.7c2.2-0.1,4.3,0.8,5.7,2.6v-9.1h4.9v24.3h-4.9v-2.1c-1.4,1.7-3.5,2.7-5.7,2.6
			C313.3,169.9,311.1,169,309.7,167.3"/>
		<polygon class="st6" points="119.6,170.3 113.8,152.8 118.7,152.8 122.1,163.1 125.5,152.7 129.4,152.7 133,163.1 136.3,152.8 
			141.2,152.8 135.2,170.3 131,170.3 127.4,159.8 123.8,170.3 		"/>
		<path class="st6" d="M154.7,163.3c-1.1-0.7-2.3-1-3.6-1c-2.1,0-3.4,0.8-3.4,2.3c0,1.4,1.3,2.3,3.1,2.3c1.5,0.1,3-0.6,3.9-1.8
			L154.7,163.3z M161.8,166.2v3.6c-0.8,0.5-1.7,0.8-2.6,0.7c-2,0-3.3-0.7-3.9-2.2c-1.6,1.6-3.8,2.4-6,2.4c-3.8,0-6.4-2.3-6.4-5.8
			c-0.1-1.7,0.7-3.3,2-4.2c1.4-1,3.1-1.5,4.8-1.5c1.7-0.1,3.4,0.3,5,1.1v-0.6c0-2.2-1.5-3.3-4.6-3.3c-1.9,0-3.7,0.5-5.3,1.5v-4.1
			c2-1,4.2-1.5,6.4-1.4c2.1-0.1,4.3,0.5,6,1.8c1.5,1.2,2.4,3.1,2.3,5v5.9c0,0.9,0.4,1.3,1.2,1.3
			C161.1,166.4,161.5,166.3,161.8,166.2"/>
		<path class="st6" d="M170.1,170.2h-4.9v-17.4h4.9v2.1c1.5-1.7,3.6-2.6,5.8-2.5c4,0,6.3,2.7,6.3,7.2v10.6h-4.9v-9.6
			c0-2.7-1.5-3.7-3.3-3.7c-1.6,0.1-3,0.9-3.9,2.3V170.2z"/>
		<path class="st6" d="M188.3,156.9h-3.4v-4.1h3.4V148h4.9v4.8h4.9v4.1h-4.9v6.9c0,1.7,0.7,2.4,2.4,2.4c0.9,0,1.8-0.2,2.6-0.6v4
			c-1.3,0.7-2.7,1-4.1,0.9c-3.8,0-5.7-1.9-5.7-5.8V156.9z"/>
	</g>
</g>
<path class="st7" d="M0,0.8v317l636-0.8V0L0,0.8z M156,216.7c-31.4,0-57.3-25.9-57.3-57.3c0-31.4,26-57.4,57.4-57.4
	c31.4,0,57.3,25.9,57.3,57.3C213.3,190.7,187.3,216.7,156,216.7z M308.3,208.6l-72.6-49.2l72.6-49.2l72.6,49.2L308.3,208.6z
	 M538,192.2l-135.6,0l0-65.7H538L538,192.2z"/>
<line class="st8" x1="403" y1="159.3" x2="379.3" y2="159.3"/>
<line class="st8" x1="237.4" y1="159.3" x2="212.8" y2="159.3"/>
<path class="st9" d="M212.8,159.3c0,31.4-25.4,56.8-56.8,56.8s-56.8-25.4-56.8-56.8c0-31.4,25.4-56.8,56.8-56.8
	C187.3,102.5,212.8,127.9,212.8,159.3"/>
<polygon id="diamond" class="st10" points="308.3,208 236.6,159.3 308.3,110.7 380,159.3 "/>
<rect id="square" x="403" y="127" class="st11" width="134.6" height="64.7"/>
</svg>
