<svg xmlns="http://www.w3.org/2000/svg" xmlns:xlink="http://www.w3.org/1999/xlink" viewBox="0 0 460 114.65" width="160" height="50">
  <defs>
    <clipPath id="a" transform="translate(-0.01)">
      <rect x="-246.22" y="-240.31" width="952.44" height="595.28" fill="none"/>
    </clipPath>
  </defs>
  <title>wantedlogo2</title>
  <g clip-path="url(#a)">
    <g>
      <path d="M124.44,57.34A56.82,56.82,0,1,1,67.62.51a56.82,56.82,0,0,1,56.82,56.83" transform="translate(-0.01)" fill="#705fc5" stroke="#705fc5" stroke-linejoin="round"/>
      <rect x="314.62" y="24.97" width="134.57" height="64.73" fill="#3d9ee8" stroke="#3d9ee8" stroke-linejoin="round"/>
      <polygon points="219.96 105.97 148.29 57.34 219.96 8.69 291.64 57.34 219.96 105.97" fill="#45bd62"/>
      <path d="M342.52,64.73a3,3,0,1,1,3,3,3,3,0,0,1-3-3" transform="translate(-0.01)" fill="#fff" stroke="#3d9ee8" stroke-linecap="round" stroke-miterlimit="10"/>
      <path d="M352.78,54.16h-3.41v-4.1h3.41V45.3h4.9v4.76h4.94v4.1h-4.94V61c0,1.7.69,2.43,2.36,2.43a5.57,5.57,0,0,0,2.54-.63v4.07a7.75,7.75,0,0,1-4.14.94c-3.79,0-5.67-1.95-5.67-5.84Z" transform="translate(-0.01)" fill="#fff" stroke="#3d9ee8" stroke-linecap="round" stroke-miterlimit="10"/>
      <path d="M377.78,56.94a3.53,3.53,0,0,0-3.58-3.48h-.07a3.79,3.79,0,0,0-4,3.48Zm-9.7,8.41a8.56,8.56,0,0,1-2.78-6.64,9,9,0,0,1,2.5-6.47,8.57,8.57,0,0,1,6.53-2.61,7.45,7.45,0,0,1,6,2.68,9.73,9.73,0,0,1,2.26,6.5V60.1H370.15c.52,2.36,2.75,3.61,5.81,3.61a11.09,11.09,0,0,0,5.56-1.53v3.93a10.74,10.74,0,0,1-6.6,1.77,9.85,9.85,0,0,1-6.85-2.5" transform="translate(-0.01)" fill="#fff" stroke="#3d9ee8" stroke-linecap="round" stroke-miterlimit="10"/>
      <path d="M388,65.36a8.68,8.68,0,0,1-2.78-6.68A8.36,8.36,0,0,1,388,52.11a9.74,9.74,0,0,1,6.71-2.5,11.31,11.31,0,0,1,5.15,1.15v4.17a10.52,10.52,0,0,0-4.42-1,5.69,5.69,0,0,0-3.86,1.36,4.72,4.72,0,0,0-.33,6.67q.16.17.33.33a5.65,5.65,0,0,0,3.86,1.34,9,9,0,0,0,4.69-1.18v4.17a11.42,11.42,0,0,1-5.49,1.29,9.57,9.57,0,0,1-6.64-2.5" transform="translate(-0.01)" fill="#fff" stroke="#3d9ee8" stroke-linecap="round" stroke-miterlimit="10"/>
      <path d="M409.2,67.41h-4.9V43.07h4.9v9.11a7.6,7.6,0,0,1,5.8-2.55c4,0,6.33,2.71,6.33,7.16V67.41h-4.9V57.78c0-2.68-1.5-3.68-3.3-3.68a5,5,0,0,0-3.93,2.26Z" transform="translate(-0.01)" fill="#fff" stroke="#3d9ee8" stroke-linecap="round" stroke-miterlimit="10"/>
      <path d="M211.61,56.94A3.53,3.53,0,0,0,208,53.46H208a3.79,3.79,0,0,0-4,3.48Zm-9.7,8.41a8.56,8.56,0,0,1-2.78-6.64,9,9,0,0,1,2.5-6.47,8.57,8.57,0,0,1,6.54-2.61,7.44,7.44,0,0,1,6,2.68,9.73,9.73,0,0,1,2.26,6.5V60.1H204c.52,2.36,2.75,3.61,5.81,3.61a11.09,11.09,0,0,0,5.56-1.53v3.93a10.74,10.74,0,0,1-6.59,1.75,9.85,9.85,0,0,1-6.85-2.5" transform="translate(-0.01)" fill="#fff" stroke="#45bd62" stroke-linecap="round" stroke-miterlimit="10"/>
      <path d="M232.92,61V56.46a4.88,4.88,0,0,0-4.31-2.57,4.41,4.41,0,0,0-3.37,1.39,5.19,5.19,0,0,0,0,6.92,4.41,4.41,0,0,0,3.37,1.43A4.9,4.9,0,0,0,232.92,61M221.34,65.3a9.62,9.62,0,0,1-2.3-6.54,9.44,9.44,0,0,1,2.3-6.47,7.48,7.48,0,0,1,5.88-2.66,6.85,6.85,0,0,1,5.7,2.57V43.07h4.86V67.41h-4.9V65.29a6.72,6.72,0,0,1-5.7,2.57,7.56,7.56,0,0,1-5.88-2.61" transform="translate(-0.01)" fill="#fff" stroke="#45bd62" stroke-linecap="round" stroke-miterlimit="10"/>
      <polygon points="31.29 68.29 25.42 50.81 30.32 50.81 33.76 61.13 37.17 50.74 41.1 50.74 44.61 61.13 47.98 50.81 52.85 50.81 46.9 68.29 42.66 68.29 39.05 57.83 35.46 68.29 31.29 68.29" fill="#fff" stroke="#705fc5" stroke-linecap="round" stroke-miterlimit="10"/>
      <path d="M66.35,61.31a6.4,6.4,0,0,0-3.62-1c-2.09,0-3.41.83-3.41,2.26s1.29,2.26,3.09,2.26a4.66,4.66,0,0,0,3.93-1.77Zm7.09,2.85v3.58a4.2,4.2,0,0,1-2.64.73c-2,0-3.27-.73-3.93-2.22a8,8,0,0,1-6,2.36c-3.76,0-6.4-2.29-6.4-5.81a4.9,4.9,0,0,1,2-4.24A8,8,0,0,1,61.3,57.1a10.66,10.66,0,0,1,5,1.08v-.55c0-2.19-1.53-3.27-4.59-3.27a10.14,10.14,0,0,0-5.25,1.46v-4.1a13.54,13.54,0,0,1,6.43-1.39,9.22,9.22,0,0,1,6,1.81,6,6,0,0,1,2.29,5V63c0,.87.42,1.32,1.22,1.32a2.23,2.23,0,0,0,1-.18" transform="translate(-0.01)" fill="#fff" stroke="#705fc5" stroke-linecap="round" stroke-miterlimit="10"/>
      <path d="M81.78,68.16h-4.9V50.81h4.9V52.9a7.52,7.52,0,0,1,5.81-2.54c4,0,6.33,2.71,6.33,7.16V68.16H89V58.53c0-2.68-1.5-3.68-3.3-3.68a5,5,0,0,0-3.9,2.25Z" transform="translate(-0.01)" fill="#fff" stroke="#705fc5" stroke-linecap="round" stroke-miterlimit="10"/>
      <path d="M100,54.91H96.56v-4.1H100V46h4.9V50.8h4.91v4.1h-4.91v6.88c0,1.7.69,2.43,2.36,2.43a5.57,5.57,0,0,0,2.55-.58v4a7.75,7.75,0,0,1-4.14.94c-3.79,0-5.67-1.95-5.67-5.84Z" transform="translate(-0.01)" fill="#fff" stroke="#705fc5" stroke-linecap="round" stroke-miterlimit="10"/>
    </g>
  </g>
  <path d="M0,0V114.65H460V0ZM67.62,114.65c-31.38,0-57.31-25.91-57.31-57.29S36.29,0,67.67,0s57.27,25.94,57.27,57.33S99,114.66,67.62,114.65ZM220,106.57,147.41,57.33,220,8.08l72.57,49.25Zm229.72-16.4H314.14V24.47H449.71Z" transform="translate(-0.01)" fill="#fff"/>
  <line x1="314.62" y1="57.32" x2="290.98" y2="57.32" fill="none" stroke="#705fc5" stroke-miterlimit="10"/>
  <line x1="149.02" y1="57.33" x2="124.43" y2="57.33" fill="none" stroke="#705fc5" stroke-miterlimit="10"/>
  <path d="M124.44,57.33A56.82,56.82,0,1,1,67.62.5a56.82,56.82,0,0,1,56.82,56.83" transform="translate(-0.01)" fill="none" stroke="#705fc5" stroke-linejoin="round"/>
  <polygon points="219.96 105.97 148.29 57.33 219.96 8.68 291.64 57.33 219.96 105.97" fill="none" stroke="#45bd62" stroke-linejoin="round"/>
  <rect x="314.62" y="24.96" width="134.57" height="64.73" fill="none" stroke="#3d9ee8" stroke-linejoin="round"/>
</svg>
